<?xml version="1.0" encoding="UTF-8" standalone="no"?>
<!DOCTYPE svg PUBLIC "-//W3C//DTD SVG 1.1//EN" "http://www.w3.org/Graphics/SVG/1.1/DTD/svg11.dtd">
<svg width="100%" height="100%" viewBox="0 0 193 193" version="1.1" xmlns="http://www.w3.org/2000/svg" xmlns:xlink="http://www.w3.org/1999/xlink" xml:space="preserve" xmlns:serif="http://www.serif.com/" style="fill-rule:evenodd;clip-rule:evenodd;stroke-linejoin:round;stroke-miterlimit:2;">
    <rect id="diamond" x="0.84" y="0.84" width="192" height="192" style="fill:#fff;fill-opacity:0;"/>
    <clipPath id="_clip1">
        <rect x="0.84" y="0.84" width="192" height="192"/>
    </clipPath>
    <g clip-path="url(#_clip1)">
        <g>
            <path d="M37.82,140.494L84.271,94.175L93.4,103.229L49.837,147.299L37.82,140.494ZM47.491,34.065C47.491,34.065 72.792,41.317 110.53,77.176L105.186,67.411L107.386,65.034L122.875,80.549L118.581,85.191C118.581,85.191 144.802,117.851 154.057,140.494L108.697,94.175L99.356,104.335L83.846,88.397L90.995,82.152L104.369,90.829L47.491,34.065Z" style="fill:#59a1a6;"/>
            <path d="M96.748,4.84L170.36,47.34L170.36,132.34L96.748,174.84L23.135,132.34L23.135,47.34L96.748,4.84Z" style="fill:none;"/>
            <clipPath id="_clip2">
                <path d="M96.748,4.84L170.36,47.34L170.36,132.34L96.748,174.84L23.135,132.34L23.135,47.34L96.748,4.84Z"/>
            </clipPath>
            <g clip-path="url(#_clip2)">
                <g>
                    <path d="M110.422,110.487L108.93,108.963L99.567,119.147L95.803,115.28L58.634,152.881L96.748,174.84L110.422,110.487Z" style="fill:#9cc6c9;"/>
                    <path d="M110.422,110.487L145.765,146.577L96.748,174.84L110.422,110.487Z" style="fill:#a6d5d9;"/>
                    <path d="M163.38,136.42L160.467,130.018L156.903,123.287L156.717,122.956C148.844,108.92 138.213,94.192 131.889,85.796L136.992,80.281L134.185,77.469L170.36,47.695L170.36,132.395L163.38,136.42Z" style="fill:#ccfbff;"/>
                    <path d="M69.877,88.641L72.599,91.437L28.485,135.426L23.135,132.395L23.135,82.763L69.877,88.641Z" style="fill:#599fa6;"/>
                    <path d="M170.36,47.695L134.185,77.469L107.107,50.347L105.758,51.804L96.748,4.84L170.36,47.695Z" style="fill:#66c4cc;"/>
                    <path d="M37.78,38.756L78.583,79.477L69.057,87.799L69.877,88.641L23.135,82.763L23.135,46.98L37.78,38.756Z" style="fill:#9cc6c9;"/>
                    <path d="M105.758,51.804L96.748,4.84L58.138,27.309C66.799,31.175 82.165,39.453 101.957,55.913L105.758,51.804Z" style="fill:#b8dde0;"/>
                </g>
            </g>
            <path d="M96.933,4.84L170.545,47.34L170.545,132.34L96.933,174.84L23.321,132.34L23.321,47.34L96.933,4.84ZM96.933,27.934L150.545,58.887C150.545,58.887 150.545,120.793 150.545,120.793C150.545,120.793 96.933,151.746 96.933,151.746C96.933,151.746 43.321,120.793 43.321,120.793C43.321,120.793 43.321,58.887 43.321,58.887L96.933,27.934Z" style="fill:#fff;fill-opacity:0.4;"/>
            <g id="pedres">
                <rect x="143.938" y="59.379" width="8.977" height="8.977" style="fill:#fff;"/>
                <path d="M161.294,87.961L152.561,79.12L143.938,87.638L152.67,96.479L161.294,87.961Z" style="fill:#fff;"/>
                <path d="M122.281,139.713L110.204,136.787L107.35,148.567L119.427,151.493L122.281,139.713Z" style="fill:#fff;"/>
                <path d="M98.522,136.857L94.711,132.999L90.947,136.716L94.758,140.575L98.522,136.857Z" style="fill:#fff;"/>
                <path d="M163.258,109.072L160.489,102.467L154.123,105.136L156.892,111.741L163.258,109.072Z" style="fill:#fff;"/>
                <path d="M101.702,150.907L94.735,155.342L99.17,162.31L106.137,157.875L101.702,150.907Z" style="fill:#fff;"/>
            </g>
        </g>
        <g>
            <rect x="0.84" y="187.84" width="192" height="5" style="fill:#97dde2;"/>
        </g>
    </g>
</svg>
