<?xml version="1.0" encoding="UTF-8" standalone="no"?>
<!DOCTYPE svg PUBLIC "-//W3C//DTD SVG 1.1//EN" "http://www.w3.org/Graphics/SVG/1.1/DTD/svg11.dtd">
<svg width="100%" height="100%" viewBox="0 0 193 193" version="1.1" xmlns="http://www.w3.org/2000/svg" xmlns:xlink="http://www.w3.org/1999/xlink" xml:space="preserve" xmlns:serif="http://www.serif.com/" style="fill-rule:evenodd;clip-rule:evenodd;stroke-linejoin:round;stroke-miterlimit:2;">
    <rect id="emerald" x="0.156" y="0.84" width="192" height="192" style="fill:#fff;fill-opacity:0;"/>
    <clipPath id="_clip1">
        <rect x="0.156" y="0.84" width="192" height="192"/>
    </clipPath>
    <g clip-path="url(#_clip1)">
        <g>
            <path d="M37.136,140.494L83.587,94.175L92.716,103.229L49.153,147.299L37.136,140.494ZM46.807,34.065C46.807,34.065 72.108,41.317 109.846,77.176L104.502,67.411L106.702,65.034L122.191,80.549L117.897,85.191C117.897,85.191 144.118,117.851 153.373,140.494L108.012,94.175L98.672,104.335L83.162,88.397L90.311,82.152L103.685,90.829L46.807,34.065Z" style="fill:#007226;"/>
            <path d="M96.063,4.84L169.676,47.34L169.676,132.34L96.063,174.84L22.451,132.34L22.451,47.34L96.063,4.84Z" style="fill:none;"/>
            <clipPath id="_clip2">
                <path d="M96.063,4.84L169.676,47.34L169.676,132.34L96.063,174.84L22.451,132.34L22.451,47.34L96.063,4.84Z"/>
            </clipPath>
            <g clip-path="url(#_clip2)">
                <g>
                    <path d="M109.738,110.487L108.245,108.963L98.882,119.147L95.119,115.28L57.95,152.881L96.063,174.84L109.738,110.487Z" style="fill:#008e2f;"/>
                    <path d="M109.738,110.487L145.081,146.577L96.063,174.84L109.738,110.487Z" style="fill:#00af3a;"/>
                    <path d="M162.695,136.42L159.783,130.018L156.218,123.287L156.033,122.956C148.16,108.92 137.529,94.192 131.205,85.796L136.308,80.281L133.501,77.469L169.676,47.695L169.676,132.395L162.695,136.42Z" style="fill:#0c4;"/>
                    <path d="M69.193,88.641L71.915,91.437L27.801,135.426L22.451,132.395L22.451,82.763L69.193,88.641Z" style="fill:#004d1a;"/>
                    <path d="M169.676,47.695L133.501,77.469L106.423,50.347L105.074,51.804L96.063,4.84L169.676,47.695Z" style="fill:#062;"/>
                    <path d="M37.096,38.756L77.899,79.477L68.373,87.799L69.193,88.641L22.451,82.763L22.451,46.98L37.096,38.756Z" style="fill:#008b2e;"/>
                    <path d="M105.074,51.804L96.063,4.84L57.454,27.309C66.115,31.175 81.48,39.453 101.272,55.913L105.074,51.804Z" style="fill:#00ad3a;"/>
                </g>
            </g>
            <path d="M96.249,4.84L169.861,47.34L169.861,132.34L96.249,174.84L22.636,132.34L22.636,47.34L96.249,4.84ZM96.249,27.934L149.861,58.887C149.861,58.887 149.861,120.793 149.861,120.793C149.861,120.793 96.249,151.746 96.249,151.746C96.249,151.746 42.636,120.793 42.636,120.793C42.636,120.793 42.636,58.887 42.636,58.887L96.249,27.934Z" style="fill:#92fdb6;fill-opacity:0.4;"/>
            <g id="pedres">
                <rect x="143.254" y="59.379" width="8.977" height="8.977" style="fill:#fff;"/>
                <path d="M160.61,87.961L151.877,79.12L143.254,87.638L151.986,96.479L160.61,87.961Z" style="fill:#fff;"/>
                <path d="M121.597,139.713L109.52,136.787L106.666,148.567L118.742,151.493L121.597,139.713Z" style="fill:#fff;"/>
                <path d="M97.838,136.857L94.027,132.999L90.263,136.716L94.074,140.575L97.838,136.857Z" style="fill:#fff;"/>
                <path d="M162.573,109.072L159.804,102.467L153.439,105.136L156.208,111.741L162.573,109.072Z" style="fill:#fff;"/>
                <path d="M101.018,150.907L94.05,155.342L98.485,162.31L105.453,157.875L101.018,150.907Z" style="fill:#fff;"/>
            </g>
        </g>
        <g>
            <rect x="0.156" y="187.84" width="96" height="5" style="fill:#00b339;"/>
        </g>
    </g>
</svg>
