<?xml version="1.0" encoding="UTF-8" standalone="no"?>
<!DOCTYPE svg PUBLIC "-//W3C//DTD SVG 1.1//EN" "http://www.w3.org/Graphics/SVG/1.1/DTD/svg11.dtd">
<svg width="100%" height="100%" viewBox="0 0 193 192" version="1.1" xmlns="http://www.w3.org/2000/svg" xmlns:xlink="http://www.w3.org/1999/xlink" xml:space="preserve" xmlns:serif="http://www.serif.com/" style="fill-rule:evenodd;clip-rule:evenodd;stroke-linejoin:round;stroke-miterlimit:2;">
    <rect id="gold" x="0.225" y="0" width="192" height="192" style="fill:#fff;fill-opacity:0;"/>
    <path d="M96.225,0L179.363,48L179.363,144L96.225,192L13.086,144L13.086,48L96.225,0Z" style="fill:#fff;"/>
    <path d="M33.635,149.634L82.818,100.59L92.484,110.176L46.358,156.839L33.635,149.634ZM43.875,36.944C43.875,36.944 70.664,44.623 110.622,82.591L104.964,72.252L107.292,69.735L123.693,86.162L119.146,91.077C119.146,91.077 146.91,125.658 156.709,149.634L108.68,100.59L98.79,111.347L82.368,94.472L89.937,87.86L104.098,97.047L43.875,36.944Z" style="fill:#aa8200;"/>
    <path d="M96.028,6L173.971,51L173.971,141L96.028,186L18.086,141L18.086,51L96.028,6Z" style="fill:none;"/>
    <clipPath id="_clip1">
        <path d="M96.028,6L173.971,51L173.971,141L96.028,186L18.086,141L18.086,51L96.028,6Z"/>
    </clipPath>
    <g clip-path="url(#_clip1)">
        <g>
            <path d="M110.507,117.861L108.927,116.248L99.013,127.031L95.028,122.936L55.673,162.749L96.028,186L110.507,117.861Z" style="fill:#d4a200;"/>
            <path d="M110.507,117.861L147.929,156.074L96.028,186L110.507,117.861Z" style="fill:#ffc507;"/>
            <path d="M166.58,145.32L163.496,138.541L159.722,131.415L159.526,131.064C151.19,116.203 139.933,100.608 133.238,91.718L138.64,85.878L135.668,82.901L173.971,51.375L173.971,141.058L166.58,145.32Z" style="fill:#ffc91b;"/>
            <path d="M67.577,94.73L70.459,97.691L23.751,144.268L18.086,141.058L18.086,88.506L67.577,94.73Z" style="fill:#ae8500;"/>
            <path d="M173.971,51.375L135.668,82.901L106.997,54.183L105.569,55.727L96.028,6L173.971,51.375Z" style="fill:#deaa00;"/>
            <path d="M33.592,41.911L76.795,85.027L66.71,93.838L67.577,94.73L18.086,88.506L18.086,50.619L33.592,41.911Z" style="fill:#d09f00;"/>
            <path d="M105.569,55.727L96.028,6L55.148,29.79C64.318,33.884 80.588,42.649 101.544,60.077L105.569,55.727Z" style="fill:#ffc403;"/>
        </g>
        <path d="M55.673,162.749L95.028,122.936L99.013,127.031L108.927,116.248L147.929,156.074L96.028,186L55.673,162.749ZM106.997,54.183L101.544,60.077C80.588,42.649 64.318,33.884 55.148,29.79L96.028,6L173.971,51.375L173.971,141.058L166.58,145.32L163.496,138.541L159.722,131.415L159.526,131.064C151.19,116.203 139.933,100.608 133.238,91.718L138.64,85.878L106.997,54.183ZM18.086,50.619L33.592,41.911L76.795,85.027L66.71,93.838L70.459,97.691L23.751,144.268L18.086,141.058L18.086,50.619Z" style="fill:url(#_Linear2);"/>
    </g>
    <g opacity="0.4">
        <path d="M55.673,162.749L95.028,122.936L99.013,127.031L108.927,116.248L147.929,156.074L96.028,186L55.673,162.749ZM106.997,54.183L101.544,60.077C80.588,42.649 64.318,33.884 55.148,29.79L96.028,6L173.971,51.375L173.971,141.058L166.58,145.32L163.496,138.541L159.722,131.415L159.526,131.064C151.19,116.203 139.933,100.608 133.238,91.718L138.64,85.878L106.997,54.183ZM18.086,50.619L33.592,41.911L76.795,85.027L66.71,93.838L70.459,97.691L23.751,144.268L18.086,141.058L18.086,50.619Z" style="fill:none;"/>
        <clipPath id="_clip3">
            <path d="M55.673,162.749L95.028,122.936L99.013,127.031L108.927,116.248L147.929,156.074L96.028,186L55.673,162.749ZM106.997,54.183L101.544,60.077C80.588,42.649 64.318,33.884 55.148,29.79L96.028,6L173.971,51.375L173.971,141.058L166.58,145.32L163.496,138.541L159.722,131.415L159.526,131.064C151.19,116.203 139.933,100.608 133.238,91.718L138.64,85.878L106.997,54.183ZM18.086,50.619L33.592,41.911L76.795,85.027L66.71,93.838L70.459,97.691L23.751,144.268L18.086,141.058L18.086,50.619Z"/>
        </clipPath>
        <g clip-path="url(#_clip3)">
            <g>
                <path d="M200.365,57.572L-17.203,30.733L-20.516,57.592L197.052,84.431L200.365,57.572Z" style="fill:#ffb78c;fill-opacity:0.46;"/>
                <path d="M201.324,92.55L-16.244,65.711L-17.145,73.015L200.423,99.854L201.324,92.55Z" style="fill:#77634b;fill-opacity:0.46;"/>
                <path d="M200.789,134.392L-16.779,107.553L-17.145,110.515L200.423,137.354L200.789,134.392Z" style="fill:#cdcdcd;fill-opacity:0.86;"/>
                <path d="M202.055,106.312L-15.513,79.473L-17.145,92.702L200.423,119.541L202.055,106.312Z" style="fill:#cdcdcd;fill-opacity:0.86;"/>
                <path d="M211.147,31.674L-6.421,4.835L-8.986,25.625L208.582,52.464L211.147,31.674Z" style="fill:#343434;fill-opacity:0.46;"/>
                <path d="M190.979,119.804L-26.589,92.965L-31.925,136.22L185.644,163.059L190.979,119.804Z" style="fill:#ffd0a5;fill-opacity:0.21;"/>
                <path d="M193.684,173.234L-23.884,146.395L-25.335,158.157L192.233,184.996L193.684,173.234Z" style="fill:#f8874a;fill-opacity:0.46;"/>
            </g>
        </g>
    </g>
    <g id="pedres">
        <rect x="145.995" y="63.747" width="9.505" height="9.505" style="fill:#fff;"/>
        <path d="M164.371,94.01L155.125,84.65L145.995,93.668L155.241,103.029L164.371,94.01Z" style="fill:#fff;"/>
        <path d="M123.064,148.806L110.276,145.708L107.254,158.181L120.042,161.279L123.064,148.806Z" style="fill:#fff;"/>
        <path d="M97.907,145.783L93.872,141.697L89.887,145.633L93.922,149.719L97.907,145.783Z" style="fill:#fff;"/>
        <path d="M166.451,116.363L163.519,109.37L156.779,112.195L159.711,119.189L166.451,116.363Z" style="fill:#fff;"/>
        <path d="M101.275,160.659L93.897,165.355L98.593,172.733L105.971,168.037L101.275,160.659Z" style="fill:#fff;"/>
    </g>
    <defs>
        <linearGradient id="_Linear2" x1="0" y1="0" x2="1" y2="0" gradientUnits="userSpaceOnUse" gradientTransform="matrix(-86.0873,129.305,-129.305,-86.0873,133.528,27.534)"><stop offset="0" style="stop-color:#fff3d4;stop-opacity:0.3"/><stop offset="1" style="stop-color:#896900;stop-opacity:0.3"/></linearGradient>
    </defs>
</svg>
