<?xml version="1.0" encoding="UTF-8" standalone="no"?>
<!DOCTYPE svg PUBLIC "-//W3C//DTD SVG 1.1//EN" "http://www.w3.org/Graphics/SVG/1.1/DTD/svg11.dtd">
<svg width="192" height="192" viewBox="0 0 193 192" version="1.1" xmlns="http://www.w3.org/2000/svg" xmlns:xlink="http://www.w3.org/1999/xlink" xml:space="preserve" xmlns:serif="http://www.serif.com/" style="fill-rule:evenodd;clip-rule:evenodd;stroke-linejoin:round;stroke-miterlimit:2;">
    <rect id="gold" x="0.225" y="0" width="192" height="192" style="fill:#fff;fill-opacity:0;"/>
    <path d="M29.671,153.209L82.133,100.896L92.444,111.122L43.243,160.895L29.671,153.209ZM40.594,33.007C40.594,33.007 69.169,41.198 111.791,81.697L105.755,70.669L108.24,67.984L125.733,85.507L120.883,90.749C120.883,90.749 150.498,127.636 160.951,153.209L109.72,100.896L99.171,112.37L81.653,94.37L89.727,87.317L104.833,97.117L40.594,33.007Z" style="fill:#aa8200;"/>
    <path d="M96.225,0L179.363,48L179.363,144L96.225,192L13.086,144L13.086,48L96.225,0Z" style="fill:none;"/>
    <clipPath id="_clip1">
        <path d="M96.225,0L179.363,48L179.363,144L96.225,192L13.086,144L13.086,48L96.225,0Z"/>
    </clipPath>
    <g clip-path="url(#_clip1)">
        <g>
            <path d="M111.668,119.318L109.983,117.597L99.408,129.1L95.157,124.732L53.178,167.199L96.225,192L111.668,119.318Z" style="fill:#d4a200;"/>
            <path d="M111.668,119.318L151.585,160.079L96.225,192L111.668,119.318Z" style="fill:#ffc507;"/>
            <path d="M171.48,148.608L168.19,141.377L164.164,133.776L163.955,133.401C155.063,117.549 143.057,100.915 135.914,91.433L141.677,85.203L138.507,82.028L179.363,48.4L179.363,144.062L171.48,148.608Z" style="fill:#ffc91b;"/>
            <path d="M65.877,94.645L68.951,97.804L19.128,147.486L13.086,144.062L13.086,88.007L65.877,94.645Z" style="fill:#ae8500;"/>
            <path d="M179.363,48.4L138.507,82.028L107.925,51.396L106.401,53.042L96.225,0L179.363,48.4Z" style="fill:#deaa00;"/>
            <path d="M29.626,38.305L75.709,84.296L64.951,93.694L65.877,94.645L13.086,88.007L13.086,47.593L29.626,38.305Z" style="fill:#d09f00;"/>
            <path d="M106.401,53.042L96.225,0L52.619,25.376C62.4,29.743 79.755,39.093 102.108,57.682L106.401,53.042Z" style="fill:#ffc403;"/>
        </g>
        <path d="M53.178,167.199L95.157,124.732L99.408,129.1L109.983,117.597L151.585,160.079L96.225,192L53.178,167.199ZM107.925,51.396L102.108,57.682C79.755,39.093 62.4,29.743 52.619,25.376L96.225,0L179.363,48.4L179.363,144.062L171.48,148.608L168.19,141.377L164.164,133.776L163.955,133.401C155.063,117.549 143.057,100.915 135.914,91.433L141.677,85.203L107.925,51.396ZM13.086,47.593L29.626,38.305L75.709,84.296L64.951,93.694L68.951,97.804L19.128,147.486L13.086,144.062L13.086,47.593Z" style="fill:url(#_Linear2);"/>
    </g>
    <g opacity="0.4">
        <path d="M53.178,167.199L95.157,124.732L99.408,129.1L109.983,117.597L151.585,160.079L96.225,192L53.178,167.199ZM107.925,51.396L102.108,57.682C79.755,39.093 62.4,29.743 52.619,25.376L96.225,0L179.363,48.4L179.363,144.062L171.48,148.608L168.19,141.377L164.164,133.776L163.955,133.401C155.063,117.549 143.057,100.915 135.914,91.433L141.677,85.203L107.925,51.396ZM13.086,47.593L29.626,38.305L75.709,84.296L64.951,93.694L68.951,97.804L19.128,147.486L13.086,144.062L13.086,47.593Z" style="fill:none;"/>
        <clipPath id="_clip3">
            <path d="M53.178,167.199L95.157,124.732L99.408,129.1L109.983,117.597L151.585,160.079L96.225,192L53.178,167.199ZM107.925,51.396L102.108,57.682C79.755,39.093 62.4,29.743 52.619,25.376L96.225,0L179.363,48.4L179.363,144.062L171.48,148.608L168.19,141.377L164.164,133.776L163.955,133.401C155.063,117.549 143.057,100.915 135.914,91.433L141.677,85.203L107.925,51.396ZM13.086,47.593L29.626,38.305L75.709,84.296L64.951,93.694L68.951,97.804L19.128,147.486L13.086,144.062L13.086,47.593Z"/>
        </clipPath>
        <g clip-path="url(#_clip3)">
            <g>
                <path d="M207.517,55.01L-24.555,26.382L-28.09,55.031L203.983,83.66L207.517,55.01Z" style="fill:#ffb78c;fill-opacity:0.46;"/>
                <path d="M208.54,92.32L-23.532,63.692L-24.493,71.482L207.579,100.111L208.54,92.32Z" style="fill:#77634b;fill-opacity:0.46;"/>
                <path d="M207.969,136.951L-24.104,108.323L-24.493,111.482L207.579,140.111L207.969,136.951Z" style="fill:#cdcdcd;fill-opacity:0.86;"/>
                <path d="M209.32,107L-22.753,78.372L-24.493,92.482L207.579,121.111L209.32,107Z" style="fill:#cdcdcd;fill-opacity:0.86;"/>
                <path d="M219.018,27.386L-13.055,-1.243L-15.79,20.933L216.282,49.561L219.018,27.386Z" style="fill:#343434;fill-opacity:0.46;"/>
                <path d="M197.506,121.391L-34.567,92.763L-40.259,138.901L191.814,167.529L197.506,121.391Z" style="fill:#ffd0a5;fill-opacity:0.21;"/>
                <path d="M200.391,178.383L-31.682,149.755L-33.229,162.301L198.843,190.93L200.391,178.383Z" style="fill:#f8874a;fill-opacity:0.46;"/>
            </g>
        </g>
    </g>
    <g id="pedres">
        <rect x="149.522" y="61.597" width="10.139" height="10.139" style="fill:#fff;"/>
        <path d="M169.124,93.878L159.261,83.893L149.522,93.513L159.384,103.498L169.124,93.878Z" style="fill:#fff;"/>
        <path d="M125.062,152.327L111.422,149.022L108.199,162.326L121.839,165.631L125.062,152.327Z" style="fill:#fff;"/>
        <path d="M98.229,149.101L93.924,144.744L89.673,148.942L93.978,153.3L98.229,149.101Z" style="fill:#fff;"/>
        <path d="M171.342,117.721L168.214,110.261L161.025,113.275L164.153,120.735L171.342,117.721Z" style="fill:#fff;"/>
        <path d="M101.821,164.97L93.951,169.979L98.96,177.848L106.83,172.839L101.821,164.97Z" style="fill:#fff;"/>
    </g>
    <defs>
        <linearGradient id="_Linear2" x1="0" y1="0" x2="1" y2="0" gradientUnits="userSpaceOnUse" gradientTransform="matrix(-91.8265,137.925,-137.925,-91.8265,136.224,22.9696)"><stop offset="0" style="stop-color:#fff3d4;stop-opacity:0.3"/><stop offset="1" style="stop-color:#896900;stop-opacity:0.3"/></linearGradient>
    </defs>
</svg>
