<?xml version="1.0" encoding="UTF-8" standalone="no"?>
<!DOCTYPE svg PUBLIC "-//W3C//DTD SVG 1.1//EN" "http://www.w3.org/Graphics/SVG/1.1/DTD/svg11.dtd">
<svg width="100%" height="100%" viewBox="0 0 193 193" version="1.1" xmlns="http://www.w3.org/2000/svg" xmlns:xlink="http://www.w3.org/1999/xlink" xml:space="preserve" xmlns:serif="http://www.serif.com/" style="fill-rule:evenodd;clip-rule:evenodd;stroke-linejoin:round;stroke-miterlimit:2;">
    <rect id="gold" x="0.907" y="0.84" width="192" height="192" style="fill:#fff;fill-opacity:0;"/>
    <g>
        <path d="M37.98,140.494L84.43,94.175L93.56,103.229L49.996,147.299L37.98,140.494ZM47.651,34.065C47.651,34.065 72.952,41.317 110.69,77.176L105.346,67.411L107.545,65.034L123.035,80.549L118.74,85.191C118.74,85.191 144.961,117.851 154.217,140.494L108.856,94.175L99.516,104.335L84.005,88.397L91.154,82.152L104.529,90.829L47.651,34.065Z" style="fill:#aa8200;"/>
        <path d="M96.907,4.84L170.519,47.34L170.519,132.34L96.907,174.84L23.295,132.34L23.295,47.34L96.907,4.84Z" style="fill:none;"/>
        <clipPath id="_clip1">
            <path d="M96.907,4.84L170.519,47.34L170.519,132.34L96.907,174.84L23.295,132.34L23.295,47.34L96.907,4.84Z"/>
        </clipPath>
        <g clip-path="url(#_clip1)">
            <g>
                <path d="M110.581,110.487L109.089,108.963L99.726,119.147L95.962,115.28L58.793,152.881L96.907,174.84L110.581,110.487Z" style="fill:#d4a200;"/>
                <path d="M110.581,110.487L145.924,146.577L96.907,174.84L110.581,110.487Z" style="fill:#ffc507;"/>
                <path d="M163.539,136.42L160.626,130.018L157.062,123.287L156.876,122.956C149.004,108.92 138.373,94.192 132.049,85.796L137.152,80.281L134.345,77.469L170.519,47.695L170.519,132.395L163.539,136.42Z" style="fill:#ffc91b;"/>
                <path d="M70.036,88.641L72.758,91.437L28.645,135.426L23.295,132.395L23.295,82.763L70.036,88.641Z" style="fill:#ae8500;"/>
                <path d="M170.519,47.695L134.345,77.469L107.267,50.347L105.918,51.804L96.907,4.84L170.519,47.695Z" style="fill:#deaa00;"/>
                <path d="M37.939,38.756L78.742,79.477L69.217,87.799L70.036,88.641L23.295,82.763L23.295,46.98L37.939,38.756Z" style="fill:#d09f00;"/>
                <path d="M105.918,51.804L96.907,4.84L58.298,27.309C66.958,31.175 82.324,39.453 102.116,55.913L105.918,51.804Z" style="fill:#ffc403;"/>
            </g>
            <path d="M58.793,152.881L95.962,115.28L99.726,119.147L109.089,108.963L145.924,146.577L96.907,174.84L58.793,152.881ZM107.267,50.347L102.116,55.913C82.324,39.453 66.958,31.175 58.298,27.309L96.907,4.84L170.519,47.695L170.519,132.395L163.539,136.42L160.626,130.018L157.062,123.287L156.876,122.956C149.004,108.92 138.373,94.192 132.049,85.796L137.152,80.281L107.267,50.347ZM23.295,46.98L37.939,38.756L78.742,79.477L69.217,87.799L72.758,91.437L28.645,135.426L23.295,132.395L23.295,46.98Z" style="fill:url(#_Linear2);"/>
        </g>
        <g opacity="0.6">
            <path d="M58.793,152.881L95.962,115.28L99.726,119.147L109.089,108.963L145.924,146.577L96.907,174.84L58.793,152.881ZM107.267,50.347L102.116,55.913C82.324,39.453 66.958,31.175 58.298,27.309L96.907,4.84L170.519,47.695L170.519,132.395L163.539,136.42L160.626,130.018L157.062,123.287L156.876,122.956C149.004,108.92 138.373,94.192 132.049,85.796L137.152,80.281L107.267,50.347ZM23.295,46.98L37.939,38.756L78.742,79.477L69.217,87.799L72.758,91.437L28.645,135.426L23.295,132.395L23.295,46.98Z" style="fill:none;"/>
            <clipPath id="_clip3">
                <path d="M58.793,152.881L95.962,115.28L99.726,119.147L109.089,108.963L145.924,146.577L96.907,174.84L58.793,152.881ZM107.267,50.347L102.116,55.913C82.324,39.453 66.958,31.175 58.298,27.309L96.907,4.84L170.519,47.695L170.519,132.395L163.539,136.42L160.626,130.018L157.062,123.287L156.876,122.956C149.004,108.92 138.373,94.192 132.049,85.796L137.152,80.281L107.267,50.347ZM23.295,46.98L37.939,38.756L78.742,79.477L69.217,87.799L72.758,91.437L28.645,135.426L23.295,132.395L23.295,46.98Z"/>
            </clipPath>
            <g clip-path="url(#_clip3)">
                <g>
                    <path d="M195.447,53.547L-10.034,28.199L-13.163,53.566L192.318,78.914L195.447,53.547Z" style="fill:#ffb78c;fill-opacity:0.46;"/>
                    <path d="M196.353,86.582L-9.128,61.234L-9.979,68.132L195.502,93.48L196.353,86.582Z" style="fill:#77634b;fill-opacity:0.46;"/>
                    <path d="M195.847,126.099L-9.634,100.751L-9.979,103.549L195.502,128.897L195.847,126.099Z" style="fill:#cdcdcd;fill-opacity:0.86;"/>
                    <path d="M197.044,99.58L-8.437,74.232L-9.979,86.726L195.502,112.074L197.044,99.58Z" style="fill:#cdcdcd;fill-opacity:0.86;"/>
                    <path d="M205.63,29.088L0.149,3.74L-2.273,23.375L203.208,48.723L205.63,29.088Z" style="fill:#343434;fill-opacity:0.46;"/>
                    <path d="M186.583,112.322L-18.898,86.974L-23.937,127.825L181.544,153.173L186.583,112.322Z" style="fill:#ffd0a5;fill-opacity:0.21;"/>
                    <path d="M189.138,162.784L-16.343,137.436L-17.714,148.544L187.767,173.892L189.138,162.784Z" style="fill:#f8874a;fill-opacity:0.46;"/>
                </g>
            </g>
        </g>
        <g id="pedres">
            <rect x="144.097" y="59.379" width="8.977" height="8.977" style="fill:#fff;"/>
            <path d="M161.453,87.961L152.721,79.12L144.097,87.638L152.83,96.479L161.453,87.961Z" style="fill:#fff;"/>
            <path d="M122.44,139.713L110.363,136.787L107.509,148.567L119.586,151.493L122.44,139.713Z" style="fill:#fff;"/>
            <path d="M98.682,136.857L94.87,132.999L91.107,136.716L94.918,140.575L98.682,136.857Z" style="fill:#fff;"/>
            <path d="M163.417,109.072L160.648,102.467L154.283,105.136L157.052,111.741L163.417,109.072Z" style="fill:#fff;"/>
            <path d="M101.862,150.907L94.894,155.342L99.329,162.31L106.297,157.875L101.862,150.907Z" style="fill:#fff;"/>
        </g>
    </g>
    <g>
        <rect x="0.907" y="187.84" width="160" height="5" style="fill:#f0b642;"/>
    </g>
    <defs>
        <linearGradient id="_Linear2" x1="0" y1="0" x2="1" y2="0" gradientUnits="userSpaceOnUse" gradientTransform="matrix(-81.3047,122.121,-122.121,-81.3047,132.323,25.1779)"><stop offset="0" style="stop-color:#fff3d4;stop-opacity:0.3"/><stop offset="1" style="stop-color:#896900;stop-opacity:0.3"/></linearGradient>
    </defs>
</svg>
