<?xml version="1.0" encoding="UTF-8" standalone="no"?>
<!DOCTYPE svg PUBLIC "-//W3C//DTD SVG 1.1//EN" "http://www.w3.org/Graphics/SVG/1.1/DTD/svg11.dtd">
<svg width="192" height="192" viewBox="0 0 193 192" version="1.1" xmlns="http://www.w3.org/2000/svg" xmlns:xlink="http://www.w3.org/1999/xlink" xml:space="preserve" xmlns:serif="http://www.serif.com/" style="fill-rule:evenodd;clip-rule:evenodd;stroke-linejoin:round;stroke-miterlimit:2;">
    <rect id="green" x="0.156" y="0" width="192" height="192" style="fill:#fff;fill-opacity:0;"/>
    <path d="M29.603,153.209L82.065,100.896L92.376,111.122L43.175,160.895L29.603,153.209ZM40.525,33.007C40.525,33.007 69.101,41.198 111.722,81.697L105.687,70.669L108.171,67.984L125.665,85.507L120.815,90.749C120.815,90.749 150.429,127.636 160.882,153.209L109.651,100.896L99.102,112.37L81.584,94.37L89.659,87.317L104.764,97.117L40.525,33.007Z" style="fill:#1c7200;"/>
    <path d="M96.156,0L179.294,48L179.294,144L96.156,192L13.018,144L13.018,48L96.156,0Z" style="fill:none;"/>
    <clipPath id="_clip1">
        <path d="M96.156,0L179.294,48L179.294,144L96.156,192L13.018,144L13.018,48L96.156,0Z"/>
    </clipPath>
    <g clip-path="url(#_clip1)">
        <g>
            <path d="M111.6,119.318L109.915,117.597L99.34,129.1L95.089,124.732L53.11,167.199L96.156,192L111.6,119.318Z" style="fill:#228e00;"/>
            <path d="M111.6,119.318L151.517,160.079L96.156,192L111.6,119.318Z" style="fill:#2baf00;"/>
            <path d="M171.411,148.608L168.121,141.377L164.096,133.776L163.886,133.401C154.995,117.549 142.988,100.915 135.846,91.433L141.609,85.203L138.438,82.028L179.294,48.4L179.294,144.062L171.411,148.608Z" style="fill:#2ebd00;"/>
            <path d="M65.808,94.645L68.882,97.804L19.06,147.486L13.018,144.062L13.018,88.007L65.808,94.645Z" style="fill:#1c7400;"/>
            <path d="M179.294,48.4L138.438,82.028L107.856,51.396L106.333,53.042L96.156,0L179.294,48.4Z" style="fill:#249400;"/>
            <path d="M29.557,38.305L75.641,84.296L64.882,93.694L65.808,94.645L13.018,88.007L13.018,47.593L29.557,38.305Z" style="fill:#228b00;"/>
            <path d="M106.333,53.042L96.156,0L52.55,25.376C62.332,29.743 79.686,39.093 102.039,57.682L106.333,53.042Z" style="fill:#2aad00;"/>
        </g>
    </g>
    <g id="pedres">
        <rect x="149.453" y="61.597" width="10.139" height="10.139" style="fill:#fff;"/>
        <path d="M169.055,93.878L159.193,83.893L149.453,93.513L159.316,103.498L169.055,93.878Z" style="fill:#fff;"/>
        <path d="M124.994,152.327L111.354,149.022L108.13,162.326L121.77,165.631L124.994,152.327Z" style="fill:#fff;"/>
        <path d="M98.16,149.101L93.856,144.744L89.605,148.942L93.909,153.3L98.16,149.101Z" style="fill:#fff;"/>
        <path d="M171.273,117.721L168.146,110.261L160.957,113.275L164.084,120.735L171.273,117.721Z" style="fill:#fff;"/>
        <path d="M101.752,164.97L93.883,169.979L98.892,177.848L106.761,172.839L101.752,164.97Z" style="fill:#fff;"/>
    </g>
</svg>
