<?xml version="1.0" encoding="UTF-8" standalone="no"?>
<!DOCTYPE svg PUBLIC "-//W3C//DTD SVG 1.1//EN" "http://www.w3.org/Graphics/SVG/1.1/DTD/svg11.dtd">
<svg width="100%" height="100%" viewBox="0 0 193 192" version="1.1" xmlns="http://www.w3.org/2000/svg" xmlns:xlink="http://www.w3.org/1999/xlink" xml:space="preserve" xmlns:serif="http://www.serif.com/" style="fill-rule:evenodd;clip-rule:evenodd;stroke-linejoin:round;stroke-miterlimit:2;">
    <rect id="green" x="0.156" y="0" width="192" height="192" style="fill:#fff;fill-opacity:0;"/>
    <path d="M96.156,0L179.294,48L179.294,144L96.156,192L13.018,144L13.018,48L96.156,0Z" style="fill:#fff;"/>
    <path d="M33.566,149.634L82.749,100.59L92.416,110.176L46.29,156.839L33.566,149.634ZM43.806,36.944C43.806,36.944 70.596,44.623 110.553,82.591L104.895,72.252L107.224,69.735L123.624,86.162L119.077,91.077C119.077,91.077 146.841,125.658 156.641,149.634L108.612,100.59L98.722,111.347L82.299,94.472L89.869,87.86L104.03,97.047L43.806,36.944Z" style="fill:#1c7200;"/>
    <path d="M95.96,6L173.902,51L173.902,141L95.96,186L18.018,141L18.018,51L95.96,6Z" style="fill:none;"/>
    <clipPath id="_clip1">
        <path d="M95.96,6L173.902,51L173.902,141L95.96,186L18.018,141L18.018,51L95.96,6Z"/>
    </clipPath>
    <g clip-path="url(#_clip1)">
        <g>
            <path d="M110.438,117.861L108.859,116.248L98.945,127.031L94.959,122.936L55.604,162.749L95.96,186L110.438,117.861Z" style="fill:#228e00;"/>
            <path d="M110.438,117.861L147.861,156.074L95.96,186L110.438,117.861Z" style="fill:#2baf00;"/>
            <path d="M166.511,145.32L163.427,138.541L159.653,131.415L159.457,131.064C151.121,116.203 139.865,100.608 133.169,91.718L138.572,85.878L135.6,82.901L173.902,51.375L173.902,141.058L166.511,145.32Z" style="fill:#2ebd00;"/>
            <path d="M67.509,94.73L70.391,97.691L23.682,144.268L18.018,141.058L18.018,88.506L67.509,94.73Z" style="fill:#1c7400;"/>
            <path d="M173.902,51.375L135.6,82.901L106.929,54.183L105.501,55.727L95.96,6L173.902,51.375Z" style="fill:#249400;"/>
            <path d="M33.523,41.911L76.727,85.027L66.641,93.838L67.509,94.73L18.018,88.506L18.018,50.619L33.523,41.911Z" style="fill:#228b00;"/>
            <path d="M105.501,55.727L95.96,6L55.079,29.79C64.249,33.884 80.519,42.649 101.475,60.077L105.501,55.727Z" style="fill:#2aad00;"/>
        </g>
    </g>
    <g id="pedres">
        <rect x="145.926" y="63.747" width="9.505" height="9.505" style="fill:#fff;"/>
        <path d="M164.303,94.01L155.057,84.65L145.926,93.668L155.172,103.029L164.303,94.01Z" style="fill:#fff;"/>
        <path d="M122.995,148.806L110.208,145.708L107.186,158.181L119.973,161.279L122.995,148.806Z" style="fill:#fff;"/>
        <path d="M97.839,145.783L93.803,141.697L89.818,145.633L93.854,149.719L97.839,145.783Z" style="fill:#fff;"/>
        <path d="M166.382,116.363L163.45,109.37L156.711,112.195L159.643,119.189L166.382,116.363Z" style="fill:#fff;"/>
        <path d="M101.206,160.659L93.829,165.355L98.524,172.733L105.902,168.037L101.206,160.659Z" style="fill:#fff;"/>
    </g>
</svg>
