<?xml version="1.0" encoding="UTF-8" standalone="no"?>
<!DOCTYPE svg PUBLIC "-//W3C//DTD SVG 1.1//EN" "http://www.w3.org/Graphics/SVG/1.1/DTD/svg11.dtd">
<svg width="100%" height="100%" viewBox="0 0 193 193" version="1.1" xmlns="http://www.w3.org/2000/svg" xmlns:xlink="http://www.w3.org/1999/xlink" xml:space="preserve" xmlns:serif="http://www.serif.com/" style="fill-rule:evenodd;clip-rule:evenodd;stroke-linejoin:round;stroke-miterlimit:2;">
    <rect id="logo" x="0.355" y="0.84" width="192" height="192" style="fill:#fff;fill-opacity:0;"/>
    <path d="M96.355,0.84L179.494,48.84L179.494,144.84L96.355,192.84L13.217,144.84L13.217,48.84L96.355,0.84Z" style="fill:#fff;"/>
    <path d="M33.766,150.474L82.949,101.43L92.615,111.017L46.489,157.679L33.766,150.474ZM44.005,37.785C44.005,37.785 70.795,45.463 110.753,83.431L105.094,73.092L107.423,70.575L123.824,87.003L119.277,91.917C119.277,91.917 147.04,126.499 156.84,150.474L108.811,101.43L98.921,112.187L82.498,95.312L90.068,88.7L104.229,97.887L44.005,37.785Z" style="fill:#ff024a;"/>
    <path d="M96.159,6.84L174.102,51.84L174.102,141.84L96.159,186.84L18.217,141.84L18.217,51.84L96.159,6.84Z" style="fill:none;"/>
    <clipPath id="_clip1">
        <path d="M96.159,6.84L174.102,51.84L174.102,141.84L96.159,186.84L18.217,141.84L18.217,51.84L96.159,6.84Z"/>
    </clipPath>
    <g clip-path="url(#_clip1)">
        <g>
            <path d="M110.638,118.701L109.058,117.088L99.144,127.871L95.159,123.776L55.803,163.589L96.159,186.84L110.638,118.701Z" style="fill:#004cd8;"/>
            <path d="M110.638,118.701L148.06,156.914L96.159,186.84L110.638,118.701Z" style="fill:#0080f5;"/>
            <path d="M166.711,146.16L163.627,139.381L159.853,132.255L159.656,131.904C151.32,117.043 140.064,101.448 133.368,92.558L138.771,86.718L135.799,83.741L174.102,52.215L174.102,141.899L166.711,146.16Z" style="fill:#0193fe;"/>
            <path d="M67.708,95.57L70.59,98.531L23.881,145.108L18.217,141.899L18.217,89.347L67.708,95.57Z" style="fill:#0025c1;"/>
            <path d="M174.102,52.215L135.799,83.741L107.128,55.024L105.7,56.567L96.159,6.84L174.102,52.215Z" style="fill:#0056de;"/>
            <path d="M33.723,42.751L76.926,85.867L66.84,94.678L67.708,95.57L18.217,89.347L18.217,51.459L33.723,42.751Z" style="fill:#0049d4;"/>
            <path d="M105.7,56.567L96.159,6.84L55.279,30.63C64.449,34.725 80.719,43.489 101.675,60.917L105.7,56.567Z" style="fill:#007df2;"/>
        </g>
    </g>
    <g id="pedres">
        <rect x="146.125" y="64.587" width="9.505" height="9.505" style="fill:#ff024a;"/>
        <path d="M155.631,64.587L146.125,64.587L146.125,74.092L155.631,74.092L155.631,64.587ZM154.297,65.92L154.297,72.759C154.297,72.759 147.459,72.759 147.459,72.759C147.459,72.759 147.459,65.92 147.459,65.92L154.297,65.92Z" style="fill:#fff;"/>
        <path d="M164.502,94.851L155.256,85.49L146.125,94.509L155.372,103.869L164.502,94.851Z" style="fill:#ff024a;"/>
        <path d="M164.502,94.851L155.256,85.49L146.125,94.509L155.372,103.869L164.502,94.851ZM162.617,94.839L155.383,101.984C155.383,101.984 148.011,94.52 148.011,94.52C148.011,94.52 155.245,87.375 155.245,87.375L162.617,94.839Z" style="fill:#fff;"/>
        <path d="M123.194,149.646L110.407,146.548L107.385,159.021L120.172,162.119L123.194,149.646Z" style="fill:#ff024a;"/>
        <path d="M123.194,149.646L110.407,146.548L107.385,159.021L120.172,162.119L123.194,149.646ZM121.585,150.628L119.191,160.51C119.191,160.51 108.995,158.039 108.995,158.039C108.995,158.039 111.389,148.158 111.389,148.158L121.585,150.628Z" style="fill:#fff;"/>
        <path d="M98.038,146.623L94.003,142.537L90.018,146.474L94.053,150.559L98.038,146.623Z" style="fill:#ff024a;"/>
        <path d="M98.038,146.623L94.003,142.537L90.018,146.474L94.053,150.559L98.038,146.623ZM96.153,146.611L94.065,148.674C94.065,148.674 91.903,146.485 91.903,146.485C91.903,146.485 93.991,144.423 93.991,144.423L96.153,146.611Z" style="fill:#fff;"/>
        <path d="M166.582,117.204L163.65,110.21L156.91,113.035L159.842,120.029L166.582,117.204Z" style="fill:#ff024a;"/>
        <path d="M166.582,117.204L163.65,110.21L156.91,113.035L159.842,120.029L166.582,117.204ZM164.837,116.489L160.556,118.284C160.556,118.284 158.655,113.749 158.655,113.749C158.655,113.749 162.936,111.955 162.936,111.955L164.837,116.489Z" style="fill:#fff;"/>
        <path d="M101.406,161.499L94.028,166.195L98.724,173.573L106.101,168.877L101.406,161.499Z" style="fill:#ff024a;"/>
        <path d="M101.406,161.499L94.028,166.195L98.724,173.573L106.101,168.877L101.406,161.499ZM100.997,163.34L104.261,168.468C104.261,168.468 99.133,171.732 99.133,171.732C99.133,171.732 95.869,166.604 95.869,166.604L100.997,163.34Z" style="fill:#fff;"/>
    </g>
</svg>
