<?xml version="1.0" encoding="UTF-8" standalone="no"?>
<!DOCTYPE svg PUBLIC "-//W3C//DTD SVG 1.1//EN" "http://www.w3.org/Graphics/SVG/1.1/DTD/svg11.dtd">
<svg width="100%" height="100%" viewBox="0 0 193 192" version="1.1" xmlns="http://www.w3.org/2000/svg" xmlns:xlink="http://www.w3.org/1999/xlink" xml:space="preserve" xmlns:serif="http://www.serif.com/" style="fill-rule:evenodd;clip-rule:evenodd;stroke-linejoin:round;stroke-miterlimit:2;">
    <rect id="logo" x="0.355" y="0" width="192" height="192" style="fill:#fff;fill-opacity:0;"/>
    <path d="M96.355,0L179.494,48L179.494,144L96.355,192L13.217,144L13.217,48L96.355,0Z" style="fill:#fff;"/>
    <path d="M33.766,149.634L82.949,100.59L92.615,110.176L46.489,156.839L33.766,149.634ZM44.005,36.944C44.005,36.944 70.795,44.623 110.753,82.591L105.094,72.252L107.423,69.735L123.824,86.162L119.277,91.077C119.277,91.077 147.04,125.658 156.84,149.634L108.811,100.59L98.921,111.347L82.498,94.472L90.068,87.86L104.229,97.047L44.005,36.944Z" style="fill:#ff024a;"/>
    <path d="M96.159,6L174.102,51L174.102,141L96.159,186L18.217,141L18.217,51L96.159,6Z" style="fill:none;"/>
    <clipPath id="_clip1">
        <path d="M96.159,6L174.102,51L174.102,141L96.159,186L18.217,141L18.217,51L96.159,6Z"/>
    </clipPath>
    <g clip-path="url(#_clip1)">
        <g>
            <path d="M110.638,117.861L109.058,116.248L99.144,127.031L95.159,122.936L55.803,162.749L96.159,186L110.638,117.861Z" style="fill:#004cd8;"/>
            <path d="M110.638,117.861L148.06,156.074L96.159,186L110.638,117.861Z" style="fill:#0080f5;"/>
            <path d="M166.711,145.32L163.627,138.541L159.853,131.415L159.656,131.064C151.32,116.203 140.064,100.608 133.368,91.718L138.771,85.878L135.799,82.901L174.102,51.375L174.102,141.058L166.711,145.32Z" style="fill:#0193fe;"/>
            <path d="M67.708,94.73L70.59,97.691L23.881,144.268L18.217,141.058L18.217,88.506L67.708,94.73Z" style="fill:#0025c1;"/>
            <path d="M174.102,51.375L135.799,82.901L107.128,54.183L105.7,55.727L96.159,6L174.102,51.375Z" style="fill:#0056de;"/>
            <path d="M33.723,41.911L76.926,85.027L66.84,93.838L67.708,94.73L18.217,88.506L18.217,50.619L33.723,41.911Z" style="fill:#0049d4;"/>
            <path d="M105.7,55.727L96.159,6L55.279,29.79C64.449,33.884 80.719,42.649 101.675,60.077L105.7,55.727Z" style="fill:#007df2;"/>
        </g>
    </g>
    <g id="pedres">
        <rect x="146.125" y="63.747" width="9.505" height="9.505" style="fill:#ff024a;"/>
        <path d="M155.631,63.747L146.125,63.747L146.125,73.252L155.631,73.252L155.631,63.747ZM154.297,65.08L154.297,71.919C154.297,71.919 147.459,71.919 147.459,71.919C147.459,71.919 147.459,65.08 147.459,65.08L154.297,65.08Z" style="fill:#fff;"/>
        <path d="M164.502,94.01L155.256,84.65L146.125,93.668L155.372,103.029L164.502,94.01Z" style="fill:#ff024a;"/>
        <path d="M164.502,94.01L155.256,84.65L146.125,93.668L155.372,103.029L164.502,94.01ZM162.617,93.999L155.383,101.144C155.383,101.144 148.011,93.68 148.011,93.68C148.011,93.68 155.245,86.535 155.245,86.535L162.617,93.999Z" style="fill:#fff;"/>
        <path d="M123.194,148.806L110.407,145.708L107.385,158.181L120.172,161.279L123.194,148.806Z" style="fill:#ff024a;"/>
        <path d="M123.194,148.806L110.407,145.708L107.385,158.181L120.172,161.279L123.194,148.806ZM121.585,149.788L119.191,159.669C119.191,159.669 108.995,157.199 108.995,157.199C108.995,157.199 111.389,147.318 111.389,147.318L121.585,149.788Z" style="fill:#fff;"/>
        <path d="M98.038,145.783L94.003,141.697L90.018,145.633L94.053,149.719L98.038,145.783Z" style="fill:#ff024a;"/>
        <path d="M98.038,145.783L94.003,141.697L90.018,145.633L94.053,149.719L98.038,145.783ZM96.153,145.771L94.065,147.833C94.065,147.833 91.903,145.645 91.903,145.645C91.903,145.645 93.991,143.583 93.991,143.583L96.153,145.771Z" style="fill:#fff;"/>
        <path d="M166.582,116.363L163.65,109.37L156.91,112.195L159.842,119.189L166.582,116.363Z" style="fill:#ff024a;"/>
        <path d="M166.582,116.363L163.65,109.37L156.91,112.195L159.842,119.189L166.582,116.363ZM164.837,115.649L160.556,117.444C160.556,117.444 158.655,112.909 158.655,112.909C158.655,112.909 162.936,111.115 162.936,111.115L164.837,115.649Z" style="fill:#fff;"/>
        <path d="M101.406,160.659L94.028,165.355L98.724,172.733L106.101,168.037L101.406,160.659Z" style="fill:#ff024a;"/>
        <path d="M101.406,160.659L94.028,165.355L98.724,172.733L106.101,168.037L101.406,160.659ZM100.997,162.5L104.261,167.628C104.261,167.628 99.133,170.892 99.133,170.892C99.133,170.892 95.869,165.764 95.869,165.764L100.997,162.5Z" style="fill:#fff;"/>
    </g>
</svg>
