<?xml version="1.0" encoding="UTF-8" standalone="no"?>
<!DOCTYPE svg PUBLIC "-//W3C//DTD SVG 1.1//EN" "http://www.w3.org/Graphics/SVG/1.1/DTD/svg11.dtd">
<svg width="192" height="192" viewBox="0 0 193 192" version="1.1" xmlns="http://www.w3.org/2000/svg" xmlns:xlink="http://www.w3.org/1999/xlink" xml:space="preserve" xmlns:serif="http://www.serif.com/" style="fill-rule:evenodd;clip-rule:evenodd;stroke-linejoin:round;stroke-miterlimit:2;">
    <rect id="logo" x="0.355" y="0" width="192" height="192" style="fill:#fff;fill-opacity:0;"/>
    <path d="M29.802,153.209L82.264,100.896L92.575,111.122L43.374,160.895L29.802,153.209ZM40.725,33.007C40.725,33.007 69.3,41.198 111.922,81.697L105.886,70.669L108.37,67.984L125.864,85.507L121.014,90.749C121.014,90.749 150.629,127.636 161.082,153.209L109.851,100.896L99.302,112.37L81.784,94.37L89.858,87.317L104.963,97.117L40.725,33.007Z" style="fill:#ff024a;"/>
    <path d="M96.355,0L179.494,48L179.494,144L96.355,192L13.217,144L13.217,48L96.355,0Z" style="fill:none;"/>
    <clipPath id="_clip1">
        <path d="M96.355,0L179.494,48L179.494,144L96.355,192L13.217,144L13.217,48L96.355,0Z"/>
    </clipPath>
    <g clip-path="url(#_clip1)">
        <g>
            <path d="M111.799,119.318L110.114,117.597L99.539,129.1L95.288,124.732L53.309,167.199L96.355,192L111.799,119.318Z" style="fill:#004cd8;"/>
            <path d="M111.799,119.318L151.716,160.079L96.355,192L111.799,119.318Z" style="fill:#0080f5;"/>
            <path d="M171.61,148.608L168.321,141.377L164.295,133.776L164.086,133.401C155.194,117.549 143.187,100.915 136.045,91.433L141.808,85.203L138.638,82.028L179.494,48.4L179.494,144.062L171.61,148.608Z" style="fill:#0193fe;"/>
            <path d="M66.007,94.645L69.081,97.804L19.259,147.486L13.217,144.062L13.217,88.007L66.007,94.645Z" style="fill:#0025c1;"/>
            <path d="M179.494,48.4L138.638,82.028L108.056,51.396L106.532,53.042L96.355,0L179.494,48.4Z" style="fill:#0056de;"/>
            <path d="M29.756,38.305L75.84,84.296L65.082,93.694L66.007,94.645L13.217,88.007L13.217,47.593L29.756,38.305Z" style="fill:#0049d4;"/>
            <path d="M106.532,53.042L96.355,0L52.75,25.376C62.531,29.743 79.885,39.093 102.239,57.682L106.532,53.042Z" style="fill:#007df2;"/>
        </g>
    </g>
    <g id="pedres">
        <rect x="149.653" y="61.597" width="10.139" height="10.139" style="fill:#ff024a;"/>
        <path d="M159.791,61.597L149.653,61.597L149.653,71.735L159.791,71.735L159.791,61.597ZM158.458,62.93L158.458,70.402C158.458,70.402 150.986,70.402 150.986,70.402C150.986,70.402 150.986,62.93 150.986,62.93L158.458,62.93Z" style="fill:#fff;"/>
        <path d="M169.255,93.878L159.392,83.893L149.653,93.513L159.515,103.498L169.255,93.878Z" style="fill:#ff024a;"/>
        <path d="M169.255,93.878L159.392,83.893L149.653,93.513L159.515,103.498L169.255,93.878ZM167.369,93.866L159.527,101.612C159.527,101.612 151.538,93.525 151.538,93.525C151.538,93.525 159.381,85.778 159.381,85.778L167.369,93.866Z" style="fill:#fff;"/>
        <path d="M125.193,152.327L111.553,149.022L108.33,162.326L121.969,165.631L125.193,152.327Z" style="fill:#ff024a;"/>
        <path d="M125.193,152.327L111.553,149.022L108.33,162.326L121.969,165.631L125.193,152.327ZM123.583,153.309L120.988,164.021C120.988,164.021 109.939,161.345 109.939,161.345C109.939,161.345 112.535,150.632 112.535,150.632L123.583,153.309Z" style="fill:#fff;"/>
        <path d="M98.36,149.101L94.055,144.744L89.804,148.942L94.109,153.3L98.36,149.101Z" style="fill:#ff024a;"/>
        <path d="M98.36,149.101L94.055,144.744L89.804,148.942L94.109,153.3L98.36,149.101ZM96.474,149.09L94.12,151.415C94.12,151.415 91.69,148.954 91.69,148.954C91.69,148.954 94.043,146.629 94.043,146.629L96.474,149.09Z" style="fill:#fff;"/>
        <path d="M171.473,117.721L168.345,110.261L161.156,113.275L164.284,120.735L171.473,117.721Z" style="fill:#ff024a;"/>
        <path d="M171.473,117.721L168.345,110.261L161.156,113.275L164.284,120.735L171.473,117.721ZM169.728,117.007L164.998,118.99C164.998,118.99 162.901,113.989 162.901,113.989C162.901,113.989 167.631,112.006 167.631,112.006L169.728,117.007Z" style="fill:#fff;"/>
        <path d="M101.951,164.97L94.082,169.979L99.091,177.848L106.96,172.839L101.951,164.97Z" style="fill:#ff024a;"/>
        <path d="M101.951,164.97L94.082,169.979L99.091,177.848L106.96,172.839L101.951,164.97ZM101.543,166.811L105.12,172.43C105.12,172.43 99.5,176.007 99.5,176.007C99.5,176.007 95.923,170.388 95.923,170.388L101.543,166.811Z" style="fill:#fff;"/>
    </g>
</svg>
