<?xml version="1.0" encoding="UTF-8" standalone="no"?>
<!DOCTYPE svg PUBLIC "-//W3C//DTD SVG 1.1//EN" "http://www.w3.org/Graphics/SVG/1.1/DTD/svg11.dtd">
<svg width="100%" height="100%" viewBox="0 0 193 192" version="1.1" xmlns="http://www.w3.org/2000/svg" xmlns:xlink="http://www.w3.org/1999/xlink" xml:space="preserve" xmlns:serif="http://www.serif.com/" style="fill-rule:evenodd;clip-rule:evenodd;stroke-linejoin:round;stroke-miterlimit:2;">
    <rect id="orange" x="0.117" y="0" width="192" height="192" style="fill:#fff;fill-opacity:0;"/>
    <path d="M96.117,0L179.256,48L179.256,144L96.117,192L12.979,144L12.979,48L96.117,0Z" style="fill:#fff;"/>
    <path d="M33.527,149.634L82.71,100.59L92.377,110.176L46.251,156.839L33.527,149.634ZM43.767,36.944C43.767,36.944 70.557,44.623 110.515,82.591L104.856,72.252L107.185,69.735L123.585,86.162L119.039,91.077C119.039,91.077 146.802,125.658 156.602,149.634L108.573,100.59L98.683,111.347L82.26,94.472L89.83,87.86L103.991,97.047L43.767,36.944Z" style="fill:#ab5500;"/>
    <path d="M95.921,6L173.863,51L173.863,141L95.921,186L17.979,141L17.979,51L95.921,6Z" style="fill:none;"/>
    <clipPath id="_clip1">
        <path d="M95.921,6L173.863,51L173.863,141L95.921,186L17.979,141L17.979,51L95.921,6Z"/>
    </clipPath>
    <g clip-path="url(#_clip1)">
        <g>
            <path d="M110.4,117.861L108.82,116.248L98.906,127.031L94.921,122.936L55.565,162.749L95.921,186L110.4,117.861Z" style="fill:#d46a00;"/>
            <path d="M110.4,117.861L147.822,156.074L95.921,186L110.4,117.861Z" style="fill:#ff8307;"/>
            <path d="M166.472,145.32L163.389,138.541L159.614,131.415L159.418,131.064C151.082,116.203 139.826,100.608 133.13,91.718L138.533,85.878L135.561,82.901L173.863,51.375L173.863,141.058L166.472,145.32Z" style="fill:#ff8d1b;"/>
            <path d="M67.47,94.73L70.352,97.691L23.643,144.268L17.979,141.058L17.979,88.506L67.47,94.73Z" style="fill:#af5700;"/>
            <path d="M173.863,51.375L135.561,82.901L106.89,54.183L105.462,55.727L95.921,6L173.863,51.375Z" style="fill:#de6f00;"/>
            <path d="M33.484,41.911L76.688,85.027L66.602,93.838L67.47,94.73L17.979,88.506L17.979,50.619L33.484,41.911Z" style="fill:#d06800;"/>
            <path d="M105.462,55.727L95.921,6L55.041,29.79C64.211,33.884 80.48,42.649 101.436,60.077L105.462,55.727Z" style="fill:#ff8103;"/>
        </g>
    </g>
    <g id="pedres">
        <rect x="145.887" y="63.747" width="9.505" height="9.505" style="fill:#fff;"/>
        <path d="M164.264,94.01L155.018,84.65L145.887,93.668L155.133,103.029L164.264,94.01Z" style="fill:#fff;"/>
        <path d="M122.956,148.806L110.169,145.708L107.147,158.181L119.934,161.279L122.956,148.806Z" style="fill:#fff;"/>
        <path d="M97.8,145.783L93.764,141.697L89.779,145.633L93.815,149.719L97.8,145.783Z" style="fill:#fff;"/>
        <path d="M166.343,116.363L163.411,109.37L156.672,112.195L159.604,119.189L166.343,116.363Z" style="fill:#fff;"/>
        <path d="M101.167,160.659L93.79,165.355L98.485,172.733L105.863,168.037L101.167,160.659Z" style="fill:#fff;"/>
    </g>
</svg>
