<?xml version="1.0" encoding="UTF-8" standalone="no"?>
<!DOCTYPE svg PUBLIC "-//W3C//DTD SVG 1.1//EN" "http://www.w3.org/Graphics/SVG/1.1/DTD/svg11.dtd">
<svg width="192" height="192" viewBox="0 0 193 192" version="1.1" xmlns="http://www.w3.org/2000/svg" xmlns:xlink="http://www.w3.org/1999/xlink" xml:space="preserve" xmlns:serif="http://www.serif.com/" style="fill-rule:evenodd;clip-rule:evenodd;stroke-linejoin:round;stroke-miterlimit:2;">
    <rect id="orange" x="0.117" y="0" width="192" height="192" style="fill:#fff;fill-opacity:0;"/>
    <path d="M29.564,153.209L82.026,100.896L92.337,111.122L43.136,160.895L29.564,153.209ZM40.486,33.007C40.486,33.007 69.062,41.198 111.684,81.697L105.648,70.669L108.132,67.984L125.626,85.507L120.776,90.749C120.776,90.749 150.39,127.636 160.843,153.209L109.612,100.896L99.063,112.37L81.546,94.37L89.62,87.317L104.725,97.117L40.486,33.007Z" style="fill:#ab5500;"/>
    <path d="M96.117,0L179.256,48L179.256,144L96.117,192L12.979,144L12.979,48L96.117,0Z" style="fill:none;"/>
    <clipPath id="_clip1">
        <path d="M96.117,0L179.256,48L179.256,144L96.117,192L12.979,144L12.979,48L96.117,0Z"/>
    </clipPath>
    <g clip-path="url(#_clip1)">
        <g>
            <path d="M111.561,119.318L109.876,117.597L99.301,129.1L95.05,124.732L53.071,167.199L96.117,192L111.561,119.318Z" style="fill:#d46a00;"/>
            <path d="M111.561,119.318L151.478,160.079L96.117,192L111.561,119.318Z" style="fill:#ff8307;"/>
            <path d="M171.372,148.608L168.083,141.377L164.057,133.776L163.847,133.401C154.956,117.549 142.949,100.915 135.807,91.433L141.57,85.203L138.4,82.028L179.256,48.4L179.256,144.062L171.372,148.608Z" style="fill:#ff8d1b;"/>
            <path d="M65.769,94.645L68.843,97.804L19.021,147.486L12.979,144.062L12.979,88.007L65.769,94.645Z" style="fill:#af5700;"/>
            <path d="M179.256,48.4L138.4,82.028L107.817,51.396L106.294,53.042L96.117,0L179.256,48.4Z" style="fill:#de6f00;"/>
            <path d="M29.518,38.305L75.602,84.296L64.844,93.694L65.769,94.645L12.979,88.007L12.979,47.593L29.518,38.305Z" style="fill:#d06800;"/>
            <path d="M106.294,53.042L96.117,0L52.511,25.376C62.293,29.743 79.647,39.093 102,57.682L106.294,53.042Z" style="fill:#ff8103;"/>
        </g>
    </g>
    <g id="pedres">
        <rect x="149.414" y="61.597" width="10.139" height="10.139" style="fill:#fff;"/>
        <path d="M169.016,93.878L159.154,83.893L149.414,93.513L159.277,103.498L169.016,93.878Z" style="fill:#fff;"/>
        <path d="M124.955,152.327L111.315,149.022L108.091,162.326L121.731,165.631L124.955,152.327Z" style="fill:#fff;"/>
        <path d="M98.121,149.101L93.817,144.744L89.566,148.942L93.871,153.3L98.121,149.101Z" style="fill:#fff;"/>
        <path d="M171.234,117.721L168.107,110.261L160.918,113.275L164.045,120.735L171.234,117.721Z" style="fill:#fff;"/>
        <path d="M101.713,164.97L93.844,169.979L98.853,177.848L106.722,172.839L101.713,164.97Z" style="fill:#fff;"/>
    </g>
</svg>
