<?xml version="1.0" encoding="UTF-8" standalone="no"?>
<!DOCTYPE svg PUBLIC "-//W3C//DTD SVG 1.1//EN" "http://www.w3.org/Graphics/SVG/1.1/DTD/svg11.dtd">
<svg width="100%" height="100%" viewBox="0 0 193 192" version="1.1" xmlns="http://www.w3.org/2000/svg" xmlns:xlink="http://www.w3.org/1999/xlink" xml:space="preserve" xmlns:serif="http://www.serif.com/" style="fill-rule:evenodd;clip-rule:evenodd;stroke-linejoin:round;stroke-miterlimit:2;">
    <rect id="red" x="0.108" y="0" width="192" height="192" style="fill:#fff;fill-opacity:0;"/>
    <path d="M96.108,0L179.247,48L179.247,144L96.108,192L12.97,144L12.97,48L96.108,0Z" style="fill:#fff;"/>
    <path d="M33.518,149.634L82.701,100.59L92.368,110.176L46.242,156.839L33.518,149.634ZM43.758,36.944C43.758,36.944 70.548,44.623 110.506,82.591L104.847,72.252L107.176,69.735L123.577,86.162L119.03,91.077C119.03,91.077 146.793,125.658 156.593,149.634L108.564,100.59L98.674,111.347L82.251,94.472L89.821,87.86L103.982,97.047L43.758,36.944Z" style="fill:#a90030;"/>
    <path d="M95.912,6L173.854,51L173.854,141L95.912,186L17.97,141L17.97,51L95.912,6Z" style="fill:none;"/>
    <clipPath id="_clip1">
        <path d="M95.912,6L173.854,51L173.854,141L95.912,186L17.97,141L17.97,51L95.912,6Z"/>
    </clipPath>
    <g clip-path="url(#_clip1)">
        <g>
            <path d="M110.391,117.861L108.811,116.248L98.897,127.031L94.912,122.936L55.556,162.749L95.912,186L110.391,117.861Z" style="fill:#d3003c;"/>
            <path d="M110.391,117.861L147.813,156.074L95.912,186L110.391,117.861Z" style="fill:#ff064d;"/>
            <path d="M166.464,145.32L163.38,138.541L159.606,131.415L159.409,131.064C151.073,116.203 139.817,100.608 133.121,91.718L138.524,85.878L135.552,82.901L173.854,51.375L173.854,141.058L166.464,145.32Z" style="fill:#ff1a5b;"/>
            <path d="M67.461,94.73L70.343,97.691L23.634,144.268L17.97,141.058L17.97,88.506L67.461,94.73Z" style="fill:#ad0031;"/>
            <path d="M173.854,51.375L135.552,82.901L106.881,54.183L105.453,55.727L95.912,6L173.854,51.375Z" style="fill:#dd003f;"/>
            <path d="M33.476,41.911L76.679,85.027L66.593,93.838L67.461,94.73L17.97,88.506L17.97,50.619L33.476,41.911Z" style="fill:#cf003b;"/>
            <path d="M105.453,55.727L95.912,6L55.032,29.79C64.202,33.884 80.471,42.649 101.428,60.077L105.453,55.727Z" style="fill:#ff024a;"/>
        </g>
    </g>
    <g id="pedres">
        <rect x="145.878" y="63.747" width="9.505" height="9.505" style="fill:#fff;"/>
        <path d="M164.255,94.01L155.009,84.65L145.878,93.668L155.124,103.029L164.255,94.01Z" style="fill:#fff;"/>
        <path d="M122.947,148.806L110.16,145.708L107.138,158.181L119.925,161.279L122.947,148.806Z" style="fill:#fff;"/>
        <path d="M97.791,145.783L93.756,141.697L89.77,145.633L93.806,149.719L97.791,145.783Z" style="fill:#fff;"/>
        <path d="M166.335,116.363L163.403,109.37L156.663,112.195L159.595,119.189L166.335,116.363Z" style="fill:#fff;"/>
        <path d="M101.158,160.659L93.781,165.355L98.477,172.733L105.854,168.037L101.158,160.659Z" style="fill:#fff;"/>
    </g>
</svg>
