<?xml version="1.0" encoding="UTF-8" standalone="no"?>
<!DOCTYPE svg PUBLIC "-//W3C//DTD SVG 1.1//EN" "http://www.w3.org/Graphics/SVG/1.1/DTD/svg11.dtd">
<svg width="192" height="192" viewBox="0 0 193 192" version="1.1" xmlns="http://www.w3.org/2000/svg" xmlns:xlink="http://www.w3.org/1999/xlink" xml:space="preserve" xmlns:serif="http://www.serif.com/" style="fill-rule:evenodd;clip-rule:evenodd;stroke-linejoin:round;stroke-miterlimit:2;">
    <rect id="red" x="0.108" y="0" width="192" height="192" style="fill:#fff;fill-opacity:0;"/>
    <path d="M29.555,153.209L82.017,100.896L92.328,111.122L43.127,160.895L29.555,153.209ZM40.478,33.007C40.478,33.007 69.053,41.198 111.675,81.697L105.639,70.669L108.123,67.984L125.617,85.507L120.767,90.749C120.767,90.749 150.381,127.636 160.835,153.209L109.604,100.896L99.054,112.37L81.537,94.37L89.611,87.317L104.716,97.117L40.478,33.007Z" style="fill:#a90030;"/>
    <path d="M96.108,0L179.247,48L179.247,144L96.108,192L12.97,144L12.97,48L96.108,0Z" style="fill:none;"/>
    <clipPath id="_clip1">
        <path d="M96.108,0L179.247,48L179.247,144L96.108,192L12.97,144L12.97,48L96.108,0Z"/>
    </clipPath>
    <g clip-path="url(#_clip1)">
        <g>
            <path d="M111.552,119.318L109.867,117.597L99.292,129.1L95.041,124.732L53.062,167.199L96.108,192L111.552,119.318Z" style="fill:#d3003c;"/>
            <path d="M111.552,119.318L151.469,160.079L96.108,192L111.552,119.318Z" style="fill:#ff064d;"/>
            <path d="M171.363,148.608L168.074,141.377L164.048,133.776L163.838,133.401C154.947,117.549 142.94,100.915 135.798,91.433L141.561,85.203L138.391,82.028L179.247,48.4L179.247,144.062L171.363,148.608Z" style="fill:#ff1a5b;"/>
            <path d="M65.76,94.645L68.834,97.804L19.012,147.486L12.97,144.062L12.97,88.007L65.76,94.645Z" style="fill:#ad0031;"/>
            <path d="M179.247,48.4L138.391,82.028L107.808,51.396L106.285,53.042L96.108,0L179.247,48.4Z" style="fill:#dd003f;"/>
            <path d="M29.509,38.305L75.593,84.296L64.835,93.694L65.76,94.645L12.97,88.007L12.97,47.593L29.509,38.305Z" style="fill:#cf003b;"/>
            <path d="M106.285,53.042L96.108,0L52.502,25.376C62.284,29.743 79.638,39.093 101.991,57.682L106.285,53.042Z" style="fill:#ff024a;"/>
        </g>
    </g>
    <g id="pedres">
        <rect x="149.406" y="61.597" width="10.139" height="10.139" style="fill:#fff;"/>
        <path d="M169.007,93.878L159.145,83.893L149.406,93.513L159.268,103.498L169.007,93.878Z" style="fill:#fff;"/>
        <path d="M124.946,152.327L111.306,149.022L108.082,162.326L121.722,165.631L124.946,152.327Z" style="fill:#fff;"/>
        <path d="M98.112,149.101L93.808,144.744L89.557,148.942L93.862,153.3L98.112,149.101Z" style="fill:#fff;"/>
        <path d="M171.226,117.721L168.098,110.261L160.909,113.275L164.036,120.735L171.226,117.721Z" style="fill:#fff;"/>
        <path d="M101.704,164.97L93.835,169.979L98.844,177.848L106.713,172.839L101.704,164.97Z" style="fill:#fff;"/>
    </g>
</svg>
