<?xml version="1.0" encoding="UTF-8" standalone="no"?>
<!DOCTYPE svg PUBLIC "-//W3C//DTD SVG 1.1//EN" "http://www.w3.org/Graphics/SVG/1.1/DTD/svg11.dtd">
<svg width="100%" height="100%" viewBox="0 0 193 193" version="1.1" xmlns="http://www.w3.org/2000/svg" xmlns:xlink="http://www.w3.org/1999/xlink" xml:space="preserve" xmlns:serif="http://www.serif.com/" style="fill-rule:evenodd;clip-rule:evenodd;stroke-linejoin:round;stroke-miterlimit:2;">
    <rect id="ruby" x="0.108" y="0.84" width="192" height="192" style="fill:#fff;fill-opacity:0;"/>
    <clipPath id="_clip1">
        <rect x="0.108" y="0.84" width="192" height="192"/>
    </clipPath>
    <g clip-path="url(#_clip1)">
        <g>
            <path d="M96.016,4.84L169.628,47.34L169.628,132.34L96.016,174.84L22.403,132.34L22.403,47.34L96.016,4.84Z" style="fill:none;"/>
            <clipPath id="_clip2">
                <path d="M96.016,4.84L169.628,47.34L169.628,132.34L96.016,174.84L22.403,132.34L22.403,47.34L96.016,4.84Z"/>
            </clipPath>
            <g clip-path="url(#_clip2)">
                <g>
                    <path d="M109.69,110.487L108.198,108.963L98.835,119.147L95.071,115.28L57.902,152.881L96.016,174.84L109.69,110.487Z" style="fill:#d3003c;"/>
                    <path d="M109.69,110.487L145.033,146.577L96.016,174.84L109.69,110.487Z" style="fill:#ff064d;"/>
                    <path d="M162.648,136.42L159.735,130.018L156.171,123.287L155.985,122.956C148.112,108.92 137.481,94.192 131.158,85.796L136.26,80.281L133.453,77.469L169.628,47.695L169.628,132.395L162.648,136.42Z" style="fill:#ff4c82;"/>
                    <path d="M69.145,88.641L71.867,91.437L27.753,135.426L22.403,132.395L22.403,82.763L69.145,88.641Z" style="fill:#800024;"/>
                    <path d="M169.628,47.695L133.453,77.469L106.375,50.347L105.026,51.804L96.016,4.84L169.628,47.695Z" style="fill:#b30036;"/>
                    <path d="M37.048,38.756L77.851,79.477L68.326,87.799L69.145,88.641L22.403,82.763L22.403,46.98L37.048,38.756Z" style="fill:#cf003b;"/>
                    <path d="M105.026,51.804L96.016,4.84L57.406,27.309C66.067,31.175 81.433,39.453 101.225,55.913L105.026,51.804Z" style="fill:#ff024a;"/>
                </g>
            </g>
            <path d="M37.088,140.494L83.539,94.175L92.669,103.229L49.105,147.299L37.088,140.494ZM46.759,34.065C46.759,34.065 72.06,41.317 109.798,77.176L104.454,67.411L106.654,65.034L122.143,80.549L117.849,85.191C117.849,85.191 144.07,117.851 153.325,140.494L107.965,94.175L98.624,104.335L83.114,88.397L90.263,82.152L103.637,90.829L46.759,34.065Z" style="fill:#a90030;"/>
            <path d="M96.201,4.84L169.813,47.34L169.813,132.34L96.201,174.84L22.589,132.34L22.589,47.34L96.201,4.84ZM96.201,27.934L149.813,58.887C149.813,58.887 149.813,120.793 149.813,120.793C149.813,120.793 96.201,151.746 96.201,151.746C96.201,151.746 42.589,120.793 42.589,120.793C42.589,120.793 42.589,58.887 42.589,58.887L96.201,27.934Z" style="fill:#fd929c;fill-opacity:0.4;"/>
            <g id="pedres">
                <rect x="143.206" y="59.379" width="8.977" height="8.977" style="fill:#fff;"/>
                <path d="M160.562,87.961L151.829,79.12L143.206,87.638L151.938,96.479L160.562,87.961Z" style="fill:#fff;"/>
                <path d="M121.549,139.713L109.472,136.787L106.618,148.567L118.695,151.493L121.549,139.713Z" style="fill:#fff;"/>
                <path d="M97.79,136.857L93.979,132.999L90.215,136.716L94.026,140.575L97.79,136.857Z" style="fill:#fff;"/>
                <path d="M162.526,109.072L159.757,102.467L153.391,105.136L156.16,111.741L162.526,109.072Z" style="fill:#fff;"/>
                <path d="M100.97,150.907L94.003,155.342L98.438,162.31L105.405,157.875L100.97,150.907Z" style="fill:#fff;"/>
            </g>
        </g>
        <g>
            <rect x="0.108" y="187.84" width="32" height="5" style="fill:#ff004d;"/>
        </g>
    </g>
</svg>
