<?xml version="1.0" encoding="UTF-8" standalone="no"?>
<!DOCTYPE svg PUBLIC "-//W3C//DTD SVG 1.1//EN" "http://www.w3.org/Graphics/SVG/1.1/DTD/svg11.dtd">
<svg width="100%" height="100%" viewBox="0 0 193 193" version="1.1" xmlns="http://www.w3.org/2000/svg" xmlns:xlink="http://www.w3.org/1999/xlink" xml:space="preserve" xmlns:serif="http://www.serif.com/" style="fill-rule:evenodd;clip-rule:evenodd;stroke-linejoin:round;stroke-miterlimit:2;">
    <rect id="sapphire" x="0.117" y="0.84" width="192" height="192" style="fill:#fff;fill-opacity:0;"/>
    <clipPath id="_clip1">
        <rect x="0.117" y="0.84" width="192" height="192"/>
    </clipPath>
    <g clip-path="url(#_clip1)">
        <g>
            <path d="M37.097,140.494L83.548,94.175L92.677,103.229L49.114,147.299L37.097,140.494ZM46.768,34.065C46.768,34.065 72.069,41.317 109.807,77.176L104.463,67.411L106.663,65.034L122.152,80.549L117.858,85.191C117.858,85.191 144.079,117.851 153.334,140.494L107.973,94.175L98.633,104.335L83.123,88.397L90.272,82.152L103.646,90.829L46.768,34.065Z" style="fill:#001dab;"/>
            <path d="M96.024,4.84L169.637,47.34L169.637,132.34L96.024,174.84L22.412,132.34L22.412,47.34L96.024,4.84Z" style="fill:none;"/>
            <clipPath id="_clip2">
                <path d="M96.024,4.84L169.637,47.34L169.637,132.34L96.024,174.84L22.412,132.34L22.412,47.34L96.024,4.84Z"/>
            </clipPath>
            <g clip-path="url(#_clip2)">
                <g>
                    <path d="M109.699,110.487L108.207,108.963L98.843,119.147L95.08,115.28L57.911,152.881L96.024,174.84L109.699,110.487Z" style="fill:#0023d4;"/>
                    <path d="M109.699,110.487L145.042,146.577L96.024,174.84L109.699,110.487Z" style="fill:#143cff;"/>
                    <path d="M162.656,136.42L159.744,130.018L156.179,123.287L155.994,122.956C148.121,108.92 137.49,94.192 131.166,85.796L136.269,80.281L133.462,77.469L169.637,47.695L169.637,132.395L162.656,136.42Z" style="fill:#6680ff;"/>
                    <path d="M69.154,88.641L71.876,91.437L27.762,135.426L22.412,132.395L22.412,82.763L69.154,88.641Z" style="fill:#001580;"/>
                    <path d="M169.637,47.695L133.462,77.469L106.384,50.347L105.035,51.804L96.024,4.84L169.637,47.695Z" style="fill:#001eb3;"/>
                    <path d="M37.057,38.756L77.86,79.477L68.334,87.799L69.154,88.641L22.412,82.763L22.412,46.98L37.057,38.756Z" style="fill:#0023d0;"/>
                    <path d="M105.035,51.804L96.024,4.84L57.415,27.309C66.076,31.175 81.442,39.453 101.233,55.913L105.035,51.804Z" style="fill:#1438ff;"/>
                </g>
            </g>
            <path d="M96.21,4.84L169.822,47.34L169.822,132.34L96.21,174.84L22.598,132.34L22.598,47.34L96.21,4.84ZM96.21,27.934L149.822,58.887C149.822,58.887 149.822,120.793 149.822,120.793C149.822,120.793 96.21,151.746 96.21,151.746C96.21,151.746 42.598,120.793 42.598,120.793C42.598,120.793 42.598,58.887 42.598,58.887L96.21,27.934Z" style="fill:#92a4fd;fill-opacity:0.4;"/>
            <g id="pedres">
                <rect x="143.215" y="59.379" width="8.977" height="8.977" style="fill:#fff;"/>
                <path d="M160.571,87.961L151.838,79.12L143.215,87.638L151.947,96.479L160.571,87.961Z" style="fill:#fff;"/>
                <path d="M121.558,139.713L109.481,136.787L106.627,148.567L118.704,151.493L121.558,139.713Z" style="fill:#fff;"/>
                <path d="M97.799,136.857L93.988,132.999L90.224,136.716L94.035,140.575L97.799,136.857Z" style="fill:#fff;"/>
                <path d="M162.535,109.072L159.765,102.467L153.4,105.136L156.169,111.741L162.535,109.072Z" style="fill:#fff;"/>
                <path d="M100.979,150.907L94.012,155.342L98.447,162.31L105.414,157.875L100.979,150.907Z" style="fill:#fff;"/>
            </g>
        </g>
        <g>
            <rect x="0.117" y="187.84" width="64" height="5" style="fill:#002fff;"/>
        </g>
    </g>
</svg>
