<?xml version="1.0" encoding="UTF-8" standalone="no"?>
<!DOCTYPE svg PUBLIC "-//W3C//DTD SVG 1.1//EN" "http://www.w3.org/Graphics/SVG/1.1/DTD/svg11.dtd">
<svg width="100%" height="100%" viewBox="0 0 193 193" version="1.1" xmlns="http://www.w3.org/2000/svg" xmlns:xlink="http://www.w3.org/1999/xlink" xml:space="preserve" xmlns:serif="http://www.serif.com/" style="fill-rule:evenodd;clip-rule:evenodd;stroke-linejoin:round;stroke-miterlimit:2;">
    <rect id="silver" x="0.885" y="0.84" width="192" height="192" style="fill:#fff;fill-opacity:0;"/>
    <clipPath id="_clip1">
        <rect x="0.885" y="0.84" width="192" height="192"/>
    </clipPath>
    <g clip-path="url(#_clip1)">
        <g>
            <path d="M96.885,4.84L170.498,47.34L170.498,132.34L96.885,174.84L23.273,132.34L23.273,47.34L96.885,4.84Z" style="fill:none;"/>
            <clipPath id="_clip2">
                <path d="M96.885,4.84L170.498,47.34L170.498,132.34L96.885,174.84L23.273,132.34L23.273,47.34L96.885,4.84Z"/>
            </clipPath>
            <g clip-path="url(#_clip2)">
                <path d="M37.958,140.494L84.409,94.175L93.538,103.229L49.975,147.299L37.958,140.494ZM47.629,34.065C47.629,34.065 72.93,41.317 110.668,77.176L105.324,67.411L107.524,65.034L123.013,80.549L118.719,85.191C118.719,85.191 144.94,117.851 154.195,140.494L108.834,94.175L99.494,104.335L83.984,88.397L91.133,82.152L104.507,90.829L47.629,34.065Z" style="fill:#a7a7a7;"/>
                <g>
                    <path d="M110.56,110.487L109.068,108.963L99.704,119.147L95.941,115.28L58.772,152.881L96.885,174.84L110.56,110.487Z" style="fill:#bebebe;"/>
                    <path d="M110.56,110.487L145.903,146.577L96.885,174.84L110.56,110.487Z" style="fill:#dbdbdb;"/>
                    <path d="M163.517,136.42L160.605,130.018L157.04,123.287L156.855,122.956C148.982,108.92 138.351,94.192 132.027,85.796L137.13,80.281L134.323,77.469L170.498,47.695L170.498,132.395L163.517,136.42Z" style="fill:#e4e4e4;"/>
                    <path d="M70.015,88.641L72.737,91.437L28.623,135.426L23.273,132.395L23.273,82.763L70.015,88.641Z" style="fill:#aaa;"/>
                    <path d="M170.498,47.695L134.323,77.469L107.245,50.347L105.896,51.804L96.885,4.84L170.498,47.695Z" style="fill:#c4c4c4;"/>
                    <path d="M37.918,38.756L78.721,79.477L69.195,87.799L70.015,88.641L23.273,82.763L23.273,46.98L37.918,38.756Z" style="fill:#bebebe;"/>
                    <path d="M105.896,51.804L96.885,4.84L58.276,27.309C66.937,31.175 82.303,39.453 102.094,55.913L105.896,51.804Z" style="fill:#d8d8d8;"/>
                </g>
                <path d="M58.772,152.881L95.941,115.28L99.704,119.147L109.068,108.963L145.903,146.577L96.885,174.84L58.772,152.881ZM107.245,50.347L102.094,55.913C82.303,39.453 66.937,31.175 58.276,27.309L96.885,4.84L170.498,47.695L170.498,132.395L163.517,136.42L160.605,130.018L157.04,123.287L156.855,122.956C148.982,108.92 138.351,94.192 132.027,85.796L137.13,80.281L107.245,50.347ZM23.273,46.98L37.918,38.756L78.721,79.477L69.195,87.799L72.737,91.437L28.623,135.426L23.273,132.395L23.273,46.98Z" style="fill:url(#_Linear3);"/>
            </g>
            <g opacity="0.8">
                <g opacity="0.6">
                    <path d="M58.772,152.881L95.941,115.28L99.704,119.147L109.068,108.963L145.903,146.577L96.885,174.84L58.772,152.881ZM107.245,50.347L102.094,55.913C82.303,39.453 66.937,31.175 58.276,27.309L96.885,4.84L170.498,47.695L170.498,132.395L163.517,136.42L160.605,130.018L157.04,123.287L156.855,122.956C148.982,108.92 138.351,94.192 132.027,85.796L137.13,80.281L107.245,50.347ZM23.273,46.98L37.918,38.756L78.721,79.477L69.195,87.799L72.737,91.437L28.623,135.426L23.273,132.395L23.273,46.98Z" style="fill:none;"/>
                    <clipPath id="_clip4">
                        <path d="M58.772,152.881L95.941,115.28L99.704,119.147L109.068,108.963L145.903,146.577L96.885,174.84L58.772,152.881ZM107.245,50.347L102.094,55.913C82.303,39.453 66.937,31.175 58.276,27.309L96.885,4.84L170.498,47.695L170.498,132.395L163.517,136.42L160.605,130.018L157.04,123.287L156.855,122.956C148.982,108.92 138.351,94.192 132.027,85.796L137.13,80.281L107.245,50.347ZM23.273,46.98L37.918,38.756L78.721,79.477L69.195,87.799L72.737,91.437L28.623,135.426L23.273,132.395L23.273,46.98Z"/>
                    </clipPath>
                    <g clip-path="url(#_clip4)">
                        <g>
                            <path d="M195.426,53.547L-10.055,28.199L-13.184,53.566L192.297,78.914L195.426,53.547Z" style="fill:#ffb78c;fill-opacity:0.46;"/>
                            <path d="M196.332,86.582L-9.149,61.234L-10,68.132L195.481,93.48L196.332,86.582Z" style="fill:#77634b;fill-opacity:0.46;"/>
                            <path d="M195.826,126.099L-9.655,100.751L-10,103.549L195.481,128.897L195.826,126.099Z" style="fill:#cdcdcd;fill-opacity:0.86;"/>
                            <path d="M197.022,99.58L-8.459,74.232L-10,86.726L195.481,112.074L197.022,99.58Z" style="fill:#cdcdcd;fill-opacity:0.86;"/>
                            <path d="M205.609,29.088L0.128,3.74L-2.295,23.375L203.186,48.723L205.609,29.088Z" style="fill:#343434;fill-opacity:0.46;"/>
                            <path d="M186.561,112.322L-18.92,86.974L-23.959,127.825L181.522,153.173L186.561,112.322Z" style="fill:#ffd0a5;fill-opacity:0.21;"/>
                            <path d="M189.116,162.784L-16.365,137.436L-17.735,148.544L187.746,173.892L189.116,162.784Z" style="fill:#f8874a;fill-opacity:0.46;"/>
                        </g>
                    </g>
                </g>
            </g>
            <g id="pedres">
                <rect x="144.076" y="59.379" width="8.977" height="8.977" style="fill:#fff;"/>
                <path d="M161.432,87.961L152.699,79.12L144.076,87.638L152.808,96.479L161.432,87.961Z" style="fill:#fff;"/>
                <path d="M122.419,139.713L110.342,136.787L107.488,148.567L119.565,151.493L122.419,139.713Z" style="fill:#fff;"/>
                <path d="M98.66,136.857L94.849,132.999L91.085,136.716L94.896,140.575L98.66,136.857Z" style="fill:#fff;"/>
                <path d="M163.396,109.072L160.626,102.467L154.261,105.136L157.03,111.741L163.396,109.072Z" style="fill:#fff;"/>
                <path d="M101.84,150.907L94.872,155.342L99.307,162.31L106.275,157.875L101.84,150.907Z" style="fill:#fff;"/>
            </g>
        </g>
        <g>
            <rect x="0.885" y="187.84" width="128" height="5" style="fill:#b3b3b3;"/>
        </g>
    </g>
    <defs>
        <linearGradient id="_Linear3" x1="0" y1="0" x2="1" y2="0" gradientUnits="userSpaceOnUse" gradientTransform="matrix(-81.3047,122.121,-122.121,-81.3047,132.302,25.1779)"><stop offset="0" style="stop-color:#cfcfcf;stop-opacity:0.3"/><stop offset="1" style="stop-color:#3b3b3b;stop-opacity:0.3"/></linearGradient>
    </defs>
</svg>
