<?xml version="1.0" encoding="UTF-8" standalone="no"?>
<!DOCTYPE svg PUBLIC "-//W3C//DTD SVG 1.1//EN" "http://www.w3.org/Graphics/SVG/1.1/DTD/svg11.dtd">
<svg width="192" height="192" viewBox="0 0 193 192" version="1.1" xmlns="http://www.w3.org/2000/svg" xmlns:xlink="http://www.w3.org/1999/xlink" xml:space="preserve" xmlns:serif="http://www.serif.com/" style="fill-rule:evenodd;clip-rule:evenodd;stroke-linejoin:round;stroke-miterlimit:2;">
    <rect id="silver" x="0.204" y="0" width="192" height="192" style="fill:#fff;fill-opacity:0;"/>
    <path d="M96.204,0L179.342,48L179.342,144L96.204,192L13.066,144L13.066,48L96.204,0Z" style="fill:none;"/>
    <clipPath id="_clip1">
        <path d="M96.204,0L179.342,48L179.342,144L96.204,192L13.066,144L13.066,48L96.204,0Z"/>
    </clipPath>
    <g clip-path="url(#_clip1)">
        <path d="M29.651,153.209L82.112,100.896L92.424,111.122L43.223,160.895L29.651,153.209ZM40.573,33.007C40.573,33.007 69.149,41.198 111.77,81.697L105.735,70.669L108.219,67.984L125.713,85.507L120.863,90.749C120.863,90.749 150.477,127.636 160.93,153.209L109.699,100.896L99.15,112.37L81.632,94.37L89.707,87.317L104.812,97.117L40.573,33.007Z" style="fill:#a7a7a7;"/>
        <g>
            <path d="M111.648,119.318L109.963,117.597L99.388,129.1L95.137,124.732L53.158,167.199L96.204,192L111.648,119.318Z" style="fill:#bebebe;"/>
            <path d="M111.648,119.318L151.565,160.079L96.204,192L111.648,119.318Z" style="fill:#dbdbdb;"/>
            <path d="M171.459,148.608L168.169,141.377L164.144,133.776L163.934,133.401C155.042,117.549 143.036,100.915 135.894,91.433L141.657,85.203L138.486,82.028L179.342,48.4L179.342,144.062L171.459,148.608Z" style="fill:#e4e4e4;"/>
            <path d="M65.856,94.645L68.93,97.804L19.108,147.486L13.066,144.062L13.066,88.007L65.856,94.645Z" style="fill:#aaa;"/>
            <path d="M179.342,48.4L138.486,82.028L107.904,51.396L106.381,53.042L96.204,0L179.342,48.4Z" style="fill:#c4c4c4;"/>
            <path d="M29.605,38.305L75.689,84.296L64.93,93.694L65.856,94.645L13.066,88.007L13.066,47.593L29.605,38.305Z" style="fill:#bebebe;"/>
            <path d="M106.381,53.042L96.204,0L52.598,25.376C62.38,29.743 79.734,39.093 102.087,57.682L106.381,53.042Z" style="fill:#d8d8d8;"/>
        </g>
        <path d="M53.158,167.199L95.137,124.732L99.388,129.1L109.963,117.597L151.565,160.079L96.204,192L53.158,167.199ZM107.904,51.396L102.087,57.682C79.734,39.093 62.38,29.743 52.598,25.376L96.204,0L179.342,48.4L179.342,144.062L171.459,148.608L168.169,141.377L164.144,133.776L163.934,133.401C155.042,117.549 143.036,100.915 135.894,91.433L141.657,85.203L107.904,51.396ZM13.066,47.593L29.605,38.305L75.689,84.296L64.93,93.694L68.93,97.804L19.108,147.486L13.066,144.062L13.066,47.593Z" style="fill:url(#_Linear2);"/>
    </g>
    <g opacity="0.5">
        <g opacity="0.4">
            <path d="M53.158,167.199L95.137,124.732L99.388,129.1L109.963,117.597L151.565,160.079L96.204,192L53.158,167.199ZM107.904,51.396L102.087,57.682C79.734,39.093 62.38,29.743 52.598,25.376L96.204,0L179.342,48.4L179.342,144.062L171.459,148.608L168.169,141.377L164.144,133.776L163.934,133.401C155.042,117.549 143.036,100.915 135.894,91.433L141.657,85.203L107.904,51.396ZM13.066,47.593L29.605,38.305L75.689,84.296L64.93,93.694L68.93,97.804L19.108,147.486L13.066,144.062L13.066,47.593Z" style="fill:none;"/>
            <clipPath id="_clip3">
                <path d="M53.158,167.199L95.137,124.732L99.388,129.1L109.963,117.597L151.565,160.079L96.204,192L53.158,167.199ZM107.904,51.396L102.087,57.682C79.734,39.093 62.38,29.743 52.598,25.376L96.204,0L179.342,48.4L179.342,144.062L171.459,148.608L168.169,141.377L164.144,133.776L163.934,133.401C155.042,117.549 143.036,100.915 135.894,91.433L141.657,85.203L107.904,51.396ZM13.066,47.593L29.605,38.305L75.689,84.296L64.93,93.694L68.93,97.804L19.108,147.486L13.066,144.062L13.066,47.593Z"/>
            </clipPath>
            <g clip-path="url(#_clip3)">
                <g>
                    <path d="M207.497,55.01L-24.576,26.382L-28.11,55.031L203.962,83.66L207.497,55.01Z" style="fill:#ffb78c;fill-opacity:0.46;"/>
                    <path d="M208.52,92.32L-23.553,63.692L-24.514,71.482L207.559,100.111L208.52,92.32Z" style="fill:#77634b;fill-opacity:0.46;"/>
                    <path d="M207.948,136.951L-24.124,108.323L-24.514,111.482L207.559,140.111L207.948,136.951Z" style="fill:#cdcdcd;fill-opacity:0.86;"/>
                    <path d="M209.299,107L-22.773,78.372L-24.514,92.482L207.559,121.111L209.299,107Z" style="fill:#cdcdcd;fill-opacity:0.86;"/>
                    <path d="M218.997,27.386L-13.075,-1.243L-15.811,20.933L216.262,49.561L218.997,27.386Z" style="fill:#343434;fill-opacity:0.46;"/>
                    <path d="M197.485,121.391L-34.588,92.763L-40.279,138.901L191.793,167.529L197.485,121.391Z" style="fill:#ffd0a5;fill-opacity:0.21;"/>
                    <path d="M200.37,178.383L-31.702,149.755L-33.25,162.301L198.822,190.93L200.37,178.383Z" style="fill:#f8874a;fill-opacity:0.46;"/>
                </g>
            </g>
        </g>
    </g>
    <g id="pedres">
        <rect x="149.501" y="61.597" width="10.139" height="10.139" style="fill:#fff;"/>
        <path d="M169.103,93.878L159.241,83.893L149.501,93.513L159.364,103.498L169.103,93.878Z" style="fill:#fff;"/>
        <path d="M125.042,152.327L111.402,149.022L108.178,162.326L121.818,165.631L125.042,152.327Z" style="fill:#fff;"/>
        <path d="M98.208,149.101L93.904,144.744L89.653,148.942L93.957,153.3L98.208,149.101Z" style="fill:#fff;"/>
        <path d="M171.321,117.721L168.194,110.261L161.005,113.275L164.132,120.735L171.321,117.721Z" style="fill:#fff;"/>
        <path d="M101.8,164.97L93.931,169.979L98.939,177.848L106.809,172.839L101.8,164.97Z" style="fill:#fff;"/>
    </g>
    <defs>
        <linearGradient id="_Linear2" x1="0" y1="0" x2="1" y2="0" gradientUnits="userSpaceOnUse" gradientTransform="matrix(-91.8265,137.925,-137.925,-91.8265,136.204,22.9696)"><stop offset="0" style="stop-color:#cfcfcf;stop-opacity:0.3"/><stop offset="1" style="stop-color:#3b3b3b;stop-opacity:0.3"/></linearGradient>
    </defs>
</svg>
