<?xml version="1.0" encoding="UTF-8" standalone="no"?>
<!DOCTYPE svg PUBLIC "-//W3C//DTD SVG 1.1//EN" "http://www.w3.org/Graphics/SVG/1.1/DTD/svg11.dtd">
<svg width="100%" height="100%" viewBox="0 0 193 192" version="1.1" xmlns="http://www.w3.org/2000/svg" xmlns:xlink="http://www.w3.org/1999/xlink" xml:space="preserve" xmlns:serif="http://www.serif.com/" style="fill-rule:evenodd;clip-rule:evenodd;stroke-linejoin:round;stroke-miterlimit:2;">
    <rect id="silver" x="0.204" y="0" width="192" height="192" style="fill:#fff;fill-opacity:0;"/>
    <path d="M96.204,0L179.342,48L179.342,144L96.204,192L13.066,144L13.066,48L96.204,0Z" style="fill:#fff;"/>
    <path d="M96.008,6L173.95,51L173.95,141L96.008,186L18.066,141L18.066,51L96.008,6Z" style="fill:none;"/>
    <clipPath id="_clip1">
        <path d="M96.008,6L173.95,51L173.95,141L96.008,186L18.066,141L18.066,51L96.008,6Z"/>
    </clipPath>
    <g clip-path="url(#_clip1)">
        <path d="M33.614,149.634L82.797,100.59L92.464,110.176L46.338,156.839L33.614,149.634ZM43.854,36.944C43.854,36.944 70.644,44.623 110.601,82.591L104.943,72.252L107.272,69.735L123.672,86.162L119.125,91.077C119.125,91.077 146.889,125.658 156.689,149.634L108.66,100.59L98.77,111.347L82.347,94.472L89.917,87.86L104.078,97.047L43.854,36.944Z" style="fill:#a7a7a7;"/>
        <g>
            <path d="M110.486,117.861L108.907,116.248L98.993,127.031L95.007,122.936L55.652,162.749L96.008,186L110.486,117.861Z" style="fill:#bebebe;"/>
            <path d="M110.486,117.861L147.909,156.074L96.008,186L110.486,117.861Z" style="fill:#dbdbdb;"/>
            <path d="M166.559,145.32L163.475,138.541L159.701,131.415L159.505,131.064C151.169,116.203 139.913,100.608 133.217,91.718L138.62,85.878L135.648,82.901L173.95,51.375L173.95,141.058L166.559,145.32Z" style="fill:#e4e4e4;"/>
            <path d="M67.557,94.73L70.438,97.691L23.73,144.268L18.066,141.058L18.066,88.506L67.557,94.73Z" style="fill:#aaa;"/>
            <path d="M173.95,51.375L135.648,82.901L106.977,54.183L105.549,55.727L96.008,6L173.95,51.375Z" style="fill:#c4c4c4;"/>
            <path d="M33.571,41.911L76.775,85.027L66.689,93.838L67.557,94.73L18.066,88.506L18.066,50.619L33.571,41.911Z" style="fill:#bebebe;"/>
            <path d="M105.549,55.727L96.008,6L55.127,29.79C64.297,33.884 80.567,42.649 101.523,60.077L105.549,55.727Z" style="fill:#d8d8d8;"/>
        </g>
        <path d="M55.652,162.749L95.007,122.936L98.993,127.031L108.907,116.248L147.909,156.074L96.008,186L55.652,162.749ZM106.977,54.183L101.523,60.077C80.567,42.649 64.297,33.884 55.127,29.79L96.008,6L173.95,51.375L173.95,141.058L166.559,145.32L163.475,138.541L159.701,131.415L159.505,131.064C151.169,116.203 139.913,100.608 133.217,91.718L138.62,85.878L106.977,54.183ZM18.066,50.619L33.571,41.911L76.775,85.027L66.689,93.838L70.438,97.691L23.73,144.268L18.066,141.058L18.066,50.619Z" style="fill:url(#_Linear2);"/>
    </g>
    <g opacity="0.5">
        <g opacity="0.4">
            <path d="M55.652,162.749L95.007,122.936L98.993,127.031L108.907,116.248L147.909,156.074L96.008,186L55.652,162.749ZM106.977,54.183L101.523,60.077C80.567,42.649 64.297,33.884 55.127,29.79L96.008,6L173.95,51.375L173.95,141.058L166.559,145.32L163.475,138.541L159.701,131.415L159.505,131.064C151.169,116.203 139.913,100.608 133.217,91.718L138.62,85.878L106.977,54.183ZM18.066,50.619L33.571,41.911L76.775,85.027L66.689,93.838L70.438,97.691L23.73,144.268L18.066,141.058L18.066,50.619Z" style="fill:none;"/>
            <clipPath id="_clip3">
                <path d="M55.652,162.749L95.007,122.936L98.993,127.031L108.907,116.248L147.909,156.074L96.008,186L55.652,162.749ZM106.977,54.183L101.523,60.077C80.567,42.649 64.297,33.884 55.127,29.79L96.008,6L173.95,51.375L173.95,141.058L166.559,145.32L163.475,138.541L159.701,131.415L159.505,131.064C151.169,116.203 139.913,100.608 133.217,91.718L138.62,85.878L106.977,54.183ZM18.066,50.619L33.571,41.911L76.775,85.027L66.689,93.838L70.438,97.691L23.73,144.268L18.066,141.058L18.066,50.619Z"/>
            </clipPath>
            <g clip-path="url(#_clip3)">
                <g>
                    <path d="M200.345,57.572L-17.223,30.733L-20.537,57.592L197.031,84.431L200.345,57.572Z" style="fill:#ffb78c;fill-opacity:0.46;"/>
                    <path d="M201.304,92.55L-16.264,65.711L-17.165,73.015L200.403,99.854L201.304,92.55Z" style="fill:#77634b;fill-opacity:0.46;"/>
                    <path d="M200.768,134.392L-16.8,107.553L-17.165,110.515L200.403,137.354L200.768,134.392Z" style="fill:#cdcdcd;fill-opacity:0.86;"/>
                    <path d="M202.035,106.312L-15.533,79.473L-17.165,92.702L200.403,119.541L202.035,106.312Z" style="fill:#cdcdcd;fill-opacity:0.86;"/>
                    <path d="M211.126,31.674L-6.442,4.835L-9.006,25.625L208.562,52.464L211.126,31.674Z" style="fill:#343434;fill-opacity:0.46;"/>
                    <path d="M190.959,119.804L-26.609,92.965L-31.945,136.22L185.623,163.059L190.959,119.804Z" style="fill:#ffd0a5;fill-opacity:0.21;"/>
                    <path d="M193.664,173.234L-23.904,146.395L-25.355,158.157L192.213,184.996L193.664,173.234Z" style="fill:#f8874a;fill-opacity:0.46;"/>
                </g>
            </g>
        </g>
    </g>
    <g id="pedres">
        <rect x="145.974" y="63.747" width="9.505" height="9.505" style="fill:#fff;"/>
        <path d="M164.351,94.01L155.105,84.65L145.974,93.668L155.22,103.029L164.351,94.01Z" style="fill:#fff;"/>
        <path d="M123.043,148.806L110.256,145.708L107.234,158.181L120.021,161.279L123.043,148.806Z" style="fill:#fff;"/>
        <path d="M97.887,145.783L93.851,141.697L89.866,145.633L93.902,149.719L97.887,145.783Z" style="fill:#fff;"/>
        <path d="M166.43,116.363L163.498,109.37L156.759,112.195L159.691,119.189L166.43,116.363Z" style="fill:#fff;"/>
        <path d="M101.254,160.659L93.876,165.355L98.572,172.733L105.95,168.037L101.254,160.659Z" style="fill:#fff;"/>
    </g>
    <defs>
        <linearGradient id="_Linear2" x1="0" y1="0" x2="1" y2="0" gradientUnits="userSpaceOnUse" gradientTransform="matrix(-86.0873,129.305,-129.305,-86.0873,133.507,27.534)"><stop offset="0" style="stop-color:#cfcfcf;stop-opacity:0.3"/><stop offset="1" style="stop-color:#3b3b3b;stop-opacity:0.3"/></linearGradient>
    </defs>
</svg>
