<?xml version="1.0" encoding="UTF-8" standalone="no"?>
<!DOCTYPE svg PUBLIC "-//W3C//DTD SVG 1.1//EN" "http://www.w3.org/Graphics/SVG/1.1/DTD/svg11.dtd">
<svg width="192" height="192" viewBox="0 0 193 192" version="1.1" xmlns="http://www.w3.org/2000/svg" xmlns:xlink="http://www.w3.org/1999/xlink" xml:space="preserve" xmlns:serif="http://www.serif.com/" style="fill-rule:evenodd;clip-rule:evenodd;stroke-linejoin:round;stroke-miterlimit:2;">
    <rect id="turquoise" x="0.205" y="0" width="192" height="192" style="fill:#fff;fill-opacity:0;"/>
    <path d="M29.652,153.209L82.114,100.896L92.425,111.122L43.224,160.895L29.652,153.209ZM40.575,33.007C40.575,33.007 69.15,41.198 111.772,81.697L105.736,70.669L108.22,67.984L125.714,85.507L120.864,90.749C120.864,90.749 150.479,127.636 160.932,153.209L109.701,100.896L99.152,112.37L81.634,94.37L89.708,87.317L104.813,97.117L40.575,33.007Z" style="fill:#00a880;"/>
    <path d="M96.205,0L179.344,48L179.344,144L96.205,192L13.067,144L13.067,48L96.205,0Z" style="fill:none;"/>
    <clipPath id="_clip1">
        <path d="M96.205,0L179.344,48L179.344,144L96.205,192L13.067,144L13.067,48L96.205,0Z"/>
    </clipPath>
    <g clip-path="url(#_clip1)">
        <g>
            <path d="M111.649,119.318L109.964,117.597L99.389,129.1L95.138,124.732L53.159,167.199L96.205,192L111.649,119.318Z" style="fill:#00d19f;"/>
            <path d="M111.649,119.318L151.566,160.079L96.205,192L111.649,119.318Z" style="fill:#03ffc3;"/>
            <path d="M171.46,148.608L168.171,141.377L164.145,133.776L163.936,133.401C155.044,117.549 143.037,100.915 135.895,91.433L141.658,85.203L138.488,82.028L179.344,48.4L179.344,144.062L171.46,148.608Z" style="fill:#17ffc8;"/>
            <path d="M65.858,94.645L68.932,97.804L19.109,147.486L13.067,144.062L13.067,88.007L65.858,94.645Z" style="fill:#00ab83;"/>
            <path d="M179.344,48.4L138.488,82.028L107.906,51.396L106.382,53.042L96.205,0L179.344,48.4Z" style="fill:#00dba7;"/>
            <path d="M29.606,38.305L75.69,84.296L64.932,93.694L65.858,94.645L13.067,88.007L13.067,47.593L29.606,38.305Z" style="fill:#00cd9c;"/>
            <path d="M106.382,53.042L96.205,0L52.6,25.376C62.381,29.743 79.735,39.093 102.089,57.682L106.382,53.042Z" style="fill:#00fec2;"/>
        </g>
    </g>
    <g id="pedres">
        <rect x="149.503" y="61.597" width="10.139" height="10.139" style="fill:#fff;"/>
        <path d="M169.105,93.878L159.242,83.893L149.503,93.513L159.365,103.498L169.105,93.878Z" style="fill:#fff;"/>
        <path d="M125.043,152.327L111.403,149.022L108.18,162.326L121.819,165.631L125.043,152.327Z" style="fill:#fff;"/>
        <path d="M98.21,149.101L93.905,144.744L89.654,148.942L93.959,153.3L98.21,149.101Z" style="fill:#fff;"/>
        <path d="M171.323,117.721L168.195,110.261L161.006,113.275L164.134,120.735L171.323,117.721Z" style="fill:#fff;"/>
        <path d="M101.801,164.97L93.932,169.979L98.941,177.848L106.81,172.839L101.801,164.97Z" style="fill:#fff;"/>
    </g>
</svg>
