<?xml version="1.0" encoding="UTF-8" standalone="no"?>
<!DOCTYPE svg PUBLIC "-//W3C//DTD SVG 1.1//EN" "http://www.w3.org/Graphics/SVG/1.1/DTD/svg11.dtd">
<svg width="100%" height="100%" viewBox="0 0 193 192" version="1.1" xmlns="http://www.w3.org/2000/svg" xmlns:xlink="http://www.w3.org/1999/xlink" xml:space="preserve" xmlns:serif="http://www.serif.com/" style="fill-rule:evenodd;clip-rule:evenodd;stroke-linejoin:round;stroke-miterlimit:2;">
    <rect id="turquoise" x="0.205" y="0" width="192" height="192" style="fill:#fff;fill-opacity:0;"/>
    <path d="M96.205,0L179.344,48L179.344,144L96.205,192L13.067,144L13.067,48L96.205,0Z" style="fill:#fff;"/>
    <path d="M33.616,149.634L82.799,100.59L92.465,110.176L46.339,156.839L33.616,149.634ZM43.856,36.944C43.856,36.944 70.645,44.623 110.603,82.591L104.944,72.252L107.273,69.735L123.674,86.162L119.127,91.077C119.127,91.077 146.89,125.658 156.69,149.634L108.661,100.59L98.771,111.347L82.349,94.472L89.918,87.86L104.079,97.047L43.856,36.944Z" style="fill:#00a880;"/>
    <path d="M96.009,6L173.952,51L173.952,141L96.009,186L18.067,141L18.067,51L96.009,6Z" style="fill:none;"/>
    <clipPath id="_clip1">
        <path d="M96.009,6L173.952,51L173.952,141L96.009,186L18.067,141L18.067,51L96.009,6Z"/>
    </clipPath>
    <g clip-path="url(#_clip1)">
        <g>
            <path d="M110.488,117.861L108.908,116.248L98.994,127.031L95.009,122.936L55.654,162.749L96.009,186L110.488,117.861Z" style="fill:#00d19f;"/>
            <path d="M110.488,117.861L147.91,156.074L96.009,186L110.488,117.861Z" style="fill:#03ffc3;"/>
            <path d="M166.561,145.32L163.477,138.541L159.703,131.415L159.506,131.064C151.17,116.203 139.914,100.608 133.218,91.718L138.621,85.878L135.649,82.901L173.952,51.375L173.952,141.058L166.561,145.32Z" style="fill:#17ffc8;"/>
            <path d="M67.558,94.73L70.44,97.691L23.731,144.268L18.067,141.058L18.067,88.506L67.558,94.73Z" style="fill:#00ab83;"/>
            <path d="M173.952,51.375L135.649,82.901L106.978,54.183L105.55,55.727L96.009,6L173.952,51.375Z" style="fill:#00dba7;"/>
            <path d="M33.573,41.911L76.776,85.027L66.69,93.838L67.558,94.73L18.067,88.506L18.067,50.619L33.573,41.911Z" style="fill:#00cd9c;"/>
            <path d="M105.55,55.727L96.009,6L55.129,29.79C64.299,33.884 80.569,42.649 101.525,60.077L105.55,55.727Z" style="fill:#00fec2;"/>
        </g>
    </g>
    <g id="pedres">
        <rect x="145.976" y="63.747" width="9.505" height="9.505" style="fill:#fff;"/>
        <path d="M164.352,94.01L155.106,84.65L145.976,93.668L155.222,103.029L164.352,94.01Z" style="fill:#fff;"/>
        <path d="M123.045,148.806L110.257,145.708L107.235,158.181L120.022,161.279L123.045,148.806Z" style="fill:#fff;"/>
        <path d="M97.888,145.783L93.853,141.697L89.868,145.633L93.903,149.719L97.888,145.783Z" style="fill:#fff;"/>
        <path d="M166.432,116.363L163.5,109.37L156.76,112.195L159.692,119.189L166.432,116.363Z" style="fill:#fff;"/>
        <path d="M101.256,160.659L93.878,165.355L98.574,172.733L105.951,168.037L101.256,160.659Z" style="fill:#fff;"/>
    </g>
</svg>
